<svg width="103" height="24" viewBox="0 0 103 24" fill="none" xmlns="http://www.w3.org/2000/svg">
<path d="M85.9426 20.4088H87.5965V9.38968H85.9426V20.4088ZM100.839 13.3593L98.9434 18.1363H98.8867L96.9191 13.3593H95.1376L98.0891 20.0359L96.406 23.7501H98.1308L102.679 13.3596L100.839 13.3593ZM91.4595 19.1571C90.9188 19.1571 90.1628 18.8875 90.1628 18.2213C90.1628 17.3709 91.1041 17.0449 91.916 17.0449C92.6428 17.0449 92.9858 17.2005 93.4272 17.4133C93.2987 18.4341 92.4149 19.1571 91.4595 19.1571ZM91.6598 13.1183C90.4624 13.1183 89.2224 13.643 88.7092 14.8054L90.177 15.4147C90.4907 14.8054 91.0748 14.6071 91.6882 14.6071C92.5435 14.6071 93.413 15.1169 93.4271 16.0245V16.1378C93.1275 15.9676 92.4858 15.7126 91.7023 15.7126C90.1193 15.7126 88.5089 16.577 88.5089 18.1931C88.5089 19.6674 89.8065 20.6173 91.2601 20.6173C92.3716 20.6173 92.9857 20.1211 93.3695 19.5397H93.4271V20.3907H95.0243V16.1659C95.0243 14.2097 93.5548 13.1183 91.6598 13.1183ZM81.4384 14.7006H79.0861V10.9238H81.4384C82.6749 10.9238 83.3768 11.9416 83.3768 12.8122C83.3768 13.6661 82.6748 14.7006 81.4384 14.7006ZM81.3959 9.38994H77.433V20.409H79.0862V16.2345H81.396C83.2289 16.2345 85.0308 14.9152 85.0308 12.8126C85.0308 10.7104 83.2288 9.38994 81.3959 9.38994ZM59.7865 19.159C58.6439 19.159 57.6877 18.2073 57.6877 16.9015C57.6877 15.5804 58.6439 14.6154 59.7865 14.6154C60.9146 14.6154 61.7998 15.5805 61.7998 16.9015C61.7998 18.2073 60.9146 19.159 59.7865 19.159ZM61.6855 13.9761H61.6284C61.2573 13.5361 60.543 13.1384 59.6439 13.1384C57.7587 13.1384 56.031 14.7859 56.031 16.9015C56.031 19.0027 57.7587 20.6356 59.6439 20.6356C60.543 20.6356 61.2572 20.2379 61.6284 19.7839H61.6855V20.323C61.6855 21.7577 60.9146 22.5241 59.6723 22.5241C58.6588 22.5241 58.0305 21.8 57.7732 21.1895L56.3313 21.7858C56.745 22.7794 57.8442 24.001 59.6723 24.001C61.6146 24.001 63.2567 22.8648 63.2567 20.0957V13.3655H61.6856L61.6855 13.9761ZM64.3992 20.4084H66.0549V9.38935H64.3992V20.4084ZM68.4968 16.7734C68.4542 15.325 69.6254 14.5868 70.4675 14.5868C71.1246 14.5868 71.681 14.9135 71.8673 15.3818L68.4968 16.7734ZM73.6371 15.5237C73.3231 14.6864 72.3665 13.1384 70.4103 13.1384C68.468 13.1384 66.8547 14.6577 66.8547 16.8871C66.8547 18.9886 68.4542 20.6357 70.5956 20.6357C72.3232 20.6357 73.3232 19.5853 73.7375 18.9745L72.4523 18.1224C72.0238 18.7473 71.4387 19.159 70.5956 19.159C69.7536 19.159 69.1536 18.7756 68.7686 18.023L73.8085 15.95L73.6371 15.5237ZM33.4796 14.2887V15.879H37.3063C37.1921 16.7735 36.8922 17.4266 36.4352 17.881C35.8782 18.4346 35.0071 19.0454 33.4796 19.0454C31.1234 19.0454 29.2816 17.157 29.2816 14.8141C29.2816 12.4712 31.1234 10.5825 33.4796 10.5825C34.7504 10.5825 35.6784 11.0796 36.3638 11.7186L37.4922 10.5966C36.5352 9.68795 35.2646 8.99219 33.4796 8.99219C30.252 8.99219 27.5391 11.6049 27.5391 14.8141C27.5391 18.0229 30.252 20.6357 33.4796 20.6357C35.2214 20.6357 36.5353 20.0676 37.5632 19.0028C38.6199 17.952 38.9484 16.4753 38.9484 15.2824C38.9484 14.9136 38.9196 14.5728 38.8625 14.2887H33.4796ZM43.2995 19.159C42.1569 19.159 41.1716 18.2218 41.1716 16.8871C41.1716 15.5381 42.1569 14.6154 43.2995 14.6154C44.4416 14.6154 45.4269 15.5381 45.4269 16.8871C45.4269 18.2218 44.4416 19.159 43.2995 19.159ZM43.2995 13.1384C41.2141 13.1384 39.5152 14.7145 39.5152 16.8871C39.5152 19.0454 41.2141 20.6357 43.2995 20.6357C45.384 20.6357 47.0833 19.0454 47.0833 16.8871C47.0833 14.7145 45.384 13.1384 43.2995 13.1384ZM51.5538 19.159C50.412 19.159 49.4264 18.2218 49.4264 16.8871C49.4264 15.5381 50.4121 14.6154 51.5538 14.6154C52.6964 14.6154 53.6814 15.5381 53.6814 16.8871C53.6814 18.2218 52.6964 19.159 51.5538 19.159ZM51.5538 13.1384C49.4692 13.1384 47.7703 14.7145 47.7703 16.8871C47.7703 19.0454 49.4692 20.6357 51.5538 20.6357C53.6392 20.6357 55.3381 19.0454 55.3381 16.8871C55.3381 14.7145 53.6392 13.1384 51.5538 13.1384Z" fill="#474747"/>
<path d="M9.52151 11.0861L0.0859375 21.0455C0.0862925 21.0475 0.0870011 21.0492 0.0873335 21.0514C0.376716 22.1328 1.37005 22.9291 2.54893 22.9291C3.02019 22.9291 3.46264 22.8024 3.84209 22.58L3.87222 22.5625L14.4937 16.4676L9.52151 11.0861Z" fill="#EB3131"/>
<path d="M19.0735 9.39188L19.0644 9.38574L14.4788 6.74219L9.3125 11.3138L14.4968 16.4685L19.0582 13.8512C19.8579 13.4219 20.4008 12.5835 20.4008 11.6167C20.4008 10.6569 19.8653 9.82263 19.0735 9.39188Z" fill="#F6B60B"/>
<path d="M0.0865378 2.14062C0.029814 2.34863 0 2.56651 0 2.79276V20.392C0 20.6178 0.0294622 20.8364 0.0868973 21.0437L9.8482 11.3388L0.0865378 2.14062Z" fill="#5778C5"/>
<path d="M9.592 11.5964L14.4762 6.74095L3.86664 0.623969C3.481 0.39428 3.03091 0.261719 2.54929 0.261719C1.37041 0.261719 0.375728 1.05948 0.0862925 2.14221C0.0859375 2.14327 0.0859375 2.144 0.0859375 2.14493L9.592 11.5964Z" fill="#3BAD49"/>
<path d="M33.1771 2.58621H30.5915V3.22248H32.529C32.4763 3.7417 32.2686 4.14934 31.9182 4.44543C31.5679 4.74157 31.1205 4.89026 30.5915 4.89026C30.0112 4.89026 29.5196 4.68922 29.1167 4.28987C28.7219 3.88223 28.5211 3.37814 28.5211 2.77084C28.5211 2.16357 28.7219 1.65947 29.1167 1.25187C29.5196 0.852513 30.0112 0.652797 30.5915 0.652797C30.8893 0.652797 31.1732 0.703743 31.4335 0.815322C31.6939 0.926816 31.903 1.08247 32.0664 1.28219L32.558 0.79329C32.335 0.541217 32.0526 0.348454 31.7021 0.207967C31.3517 0.0674736 30.9862 4.66517e-05 30.5914 4.66517e-05C29.8173 4.66517e-05 29.1609 0.267191 28.6249 0.800185C28.089 1.33448 27.8203 1.99279 27.8203 2.77085C27.8203 3.54891 28.089 4.20864 28.6249 4.74165C29.1609 5.27453 29.8173 5.54178 30.5914 5.54178C31.4044 5.54178 32.0525 5.28284 32.5511 4.75672C32.9901 4.31885 33.2144 3.72666 33.2144 2.98576C33.2144 2.86042 33.1992 2.7267 33.1771 2.58621ZM34.1787 0.118368V5.42325H37.2932V4.77182H34.8642V3.08898H37.0551V2.45271H34.8642V0.77119H37.2932V0.118349L34.1787 0.118368ZM41.6606 0.771211V0.118368H37.9948V0.771211H39.4849V5.42324H40.1704V0.771211H41.6606ZM44.9794 0.118368H44.2939V5.42325H44.9794V0.118368ZM49.5041 0.771211V0.118368H45.8384V0.771211H47.3284V5.42324H48.0139V0.771211H49.5041ZM56.4216 0.808402C55.8925 0.267151 55.2444 0 54.4703 0C53.6948 0 53.0467 0.267145 52.5176 0.800139C51.9886 1.32624 51.7283 1.98587 51.7283 2.7708C51.7283 3.55574 51.9886 4.21547 52.5176 4.7416C53.0466 5.27448 53.6948 5.54174 54.4703 5.54174C55.2375 5.54174 55.8925 5.2745 56.4216 4.7416C56.9506 4.2155 57.2109 3.5558 57.2109 2.7708C57.2109 1.99274 56.9506 1.3344 56.4216 0.808402ZM53.0093 1.25182C53.4039 0.852467 53.8887 0.65275 54.4703 0.65275C55.0505 0.65275 55.5353 0.852474 55.923 1.25182C56.3177 1.6443 56.5115 2.15654 56.5115 2.77079C56.5115 3.38643 56.3177 3.89729 55.923 4.28982C55.5353 4.68918 55.0505 4.89022 54.4703 4.89022C53.8887 4.89022 53.4039 4.68917 53.0093 4.28982C52.6228 3.88906 52.429 3.38643 52.429 2.77079C52.429 2.15655 52.6228 1.65255 53.0093 1.25182ZM58.8396 2.11945L58.8105 1.09614H58.8396L61.5512 5.4232H62.2671V0.118315H61.5816V3.22242L61.6107 4.24573H61.5816L58.9892 0.118315H58.1541V5.4232H58.8396V2.11945Z" fill="#474747"/>
</svg>
