<svg width="91" height="24" viewBox="0 0 91 24" fill="none" xmlns="http://www.w3.org/2000/svg">
<path d="M14.9274 11.1592C14.9036 8.50821 17.0963 7.21849 17.1965 7.15844C15.9547 5.34642 14.0299 5.09884 13.3536 5.0791C11.737 4.90883 10.1689 6.04721 9.34539 6.04721C8.50545 6.04721 7.23733 5.09555 5.87059 5.12351C4.11182 5.15066 2.46647 6.16977 1.56408 7.75231C-0.298239 10.9791 1.09069 15.7209 2.87494 18.3292C3.76747 19.6074 4.8104 21.0328 6.1755 20.9826C7.51101 20.9283 8.00987 20.1313 9.62153 20.1313C11.2184 20.1313 11.6868 20.9826 13.0791 20.9506C14.5124 20.9284 15.4148 19.6674 16.2761 18.3785C17.3075 16.9152 17.7217 15.4725 17.7381 15.3985C17.7053 15.387 14.9554 14.3358 14.9274 11.1592ZM12.2975 3.36331C13.0158 2.46429 13.5072 1.24119 13.3708 0C12.3312 0.0460615 11.031 0.71971 10.2823 1.59899C9.61988 2.37381 9.02815 3.64379 9.18101 4.8381C10.3489 4.92529 11.548 4.24835 12.2975 3.36331Z" fill="black"/>
<path d="M34.2726 20.7996H32.4062L31.3838 17.5844H27.8301L26.8562 20.7996H25.0391L28.5607 9.85344H30.7353L34.2726 20.7996ZM31.0756 16.2354L30.151 13.3771C30.0532 13.0851 29.8691 12.3975 29.5995 11.3151H29.5667C29.4582 11.7806 29.2848 12.4683 29.0472 13.3771L28.1383 16.2354H31.0756ZM43.3113 16.7561C43.3113 18.0984 42.9472 19.1595 42.2183 19.9384C41.5657 20.6318 40.7545 20.9781 39.7872 20.9781C38.7426 20.9781 37.9915 20.6055 37.5353 19.8587V24.0001H35.7831V15.5009C35.7831 14.6578 35.761 13.7933 35.7182 12.9067H37.2592L37.357 14.1577H37.3899C37.9742 13.2151 38.861 12.7438 40.051 12.7438C40.9814 12.7438 41.758 13.1115 42.3793 13.8476C42.9998 14.5854 43.3113 15.5544 43.3113 16.7561ZM41.5263 16.8202C41.5263 16.052 41.3537 15.4187 41.0068 14.9194C40.628 14.4004 40.1192 14.1404 39.4815 14.1404C39.0492 14.1404 38.6563 14.2852 38.3054 14.5706C37.9537 14.8585 37.7235 15.2344 37.6159 15.7C37.5678 15.8741 37.5405 16.0532 37.5345 16.2338V17.5506C37.5345 18.1239 37.7104 18.6084 38.0621 19.0049C38.4139 19.3997 38.8709 19.5979 39.433 19.5979C40.0929 19.5979 40.6066 19.3421 40.974 18.8346C41.3422 18.3255 41.5263 17.6543 41.5263 16.8202ZM52.3821 16.7561C52.3821 18.0984 52.018 19.1595 51.2891 19.9384C50.6357 20.6318 49.8253 20.9781 48.8572 20.9781C47.8126 20.9781 47.0614 20.6055 46.6053 19.8587V24.0001H44.8531V15.5009C44.8531 14.6578 44.8309 13.7933 44.7882 12.9067H46.3292L46.427 14.1577H46.4598C47.0434 13.2151 47.9301 12.7438 49.121 12.7438C50.0505 12.7438 50.8272 13.1115 51.4501 13.8476C52.0698 14.5854 52.3821 15.5544 52.3821 16.7561ZM50.5962 16.8202C50.5962 16.052 50.4228 15.4187 50.076 14.9194C49.6971 14.4004 49.19 14.1404 48.5523 14.1404C48.12 14.1404 47.7271 14.2852 47.3746 14.5706C47.0228 14.8585 46.7935 15.2344 46.6859 15.7C46.6324 15.9171 46.6037 16.0939 46.6037 16.2338V17.5506C46.6037 18.1239 46.7804 18.6084 47.1305 19.0049C47.4822 19.3989 47.9392 19.5979 48.503 19.5979C49.1637 19.5979 49.6774 19.3421 50.0439 18.8346C50.4121 18.3255 50.5962 17.6543 50.5962 16.8202ZM62.5238 17.7291C62.5238 18.6611 62.1983 19.4186 61.5515 20.0034C60.8398 20.6417 59.8462 20.9617 58.5723 20.9617C57.3954 20.9617 56.4519 20.7346 55.7402 20.2798L56.1454 18.8182C56.9138 19.2738 57.7579 19.5008 58.6767 19.5008C59.3375 19.5008 59.8511 19.3512 60.2177 19.0542C60.585 18.7565 60.7708 18.3584 60.7708 17.8616C60.7708 17.4166 60.6171 17.044 60.3155 16.7405C60.0122 16.4378 59.5109 16.1556 58.8065 15.8965C56.8916 15.1818 55.9333 14.1363 55.9333 12.7611C55.9333 11.8629 56.2719 11.1275 56.9475 10.5526C57.6231 9.97847 58.5189 9.69141 59.6333 9.69141C60.6286 9.69141 61.4578 9.86496 62.1161 10.2112L61.6765 11.6408C61.0568 11.3052 60.3574 11.1374 59.575 11.1374C58.9569 11.1374 58.4721 11.2896 58.1252 11.5923C57.8335 11.8629 57.6855 12.1927 57.6855 12.5842C57.6855 13.0161 57.854 13.3747 58.1893 13.656C58.4803 13.9151 59.0112 14.1972 59.7788 14.4999C60.7206 14.8799 61.4126 15.3224 61.8556 15.8307C62.3019 16.3391 62.5238 16.9732 62.5238 17.7291ZM68.3318 14.2227H66.4005V18.0548C66.4005 19.0295 66.7407 19.5157 67.4229 19.5157C67.736 19.5157 67.9957 19.4893 68.2011 19.4342L68.2496 20.7659C67.9045 20.895 67.45 20.96 66.887 20.96C66.195 20.96 65.6542 20.7486 65.2638 20.3258C64.8751 19.9031 64.6795 19.1949 64.6795 18.198V14.2194H63.5289V12.9034H64.6795V11.4582L66.4005 10.9384V12.9034H68.3318V14.2227ZM77.0287 16.7882C77.0287 18.0014 76.6819 18.9975 75.9899 19.7764C75.2658 20.5784 74.3026 20.9781 73.1019 20.9781C71.9431 20.9781 71.0217 20.594 70.3347 19.8266C69.6476 19.0575 69.3041 18.0886 69.3041 16.9198C69.3041 15.6967 69.6591 14.6948 70.3667 13.9159C71.076 13.1361 72.031 12.7463 73.2317 12.7463C74.3889 12.7463 75.3184 13.1312 76.0219 13.8994C76.6942 14.6447 77.0287 15.607 77.0287 16.7882ZM75.2124 16.8285C75.2124 16.1055 75.0562 15.4853 74.7431 14.9663C74.3757 14.3395 73.8497 14.0261 73.1684 14.0261C72.4666 14.0261 71.9283 14.3395 71.5617 14.9663C71.2478 15.4853 71.0916 16.1162 71.0916 16.8614C71.0916 17.5852 71.2478 18.207 71.5617 18.7244C71.9406 19.3512 72.469 19.6645 73.1536 19.6645C73.8234 19.6645 74.3486 19.3446 74.7283 18.7088C75.0505 18.1774 75.2124 17.5531 75.2124 16.8285ZM82.7266 14.4489C82.5443 14.416 82.3595 14.3997 82.1743 14.4004C81.5579 14.4004 81.0812 14.6323 80.7459 15.0995C80.455 15.5108 80.3087 16.0306 80.3087 16.6582V20.7996H78.5565V15.3923C78.5581 14.5638 78.5411 13.7353 78.5055 12.9075H80.0317L80.0958 14.4176H80.1443C80.3301 13.8986 80.621 13.48 81.0204 13.1666C81.386 12.8927 81.8302 12.7444 82.2869 12.7438C82.4488 12.7438 82.5951 12.7553 82.7249 12.7759L82.7266 14.4489ZM90.563 16.4797C90.5674 16.7463 90.5459 17.0127 90.4988 17.2751H85.2423C85.262 18.0548 85.5168 18.652 86.005 19.0633C86.4479 19.4301 87.0208 19.6144 87.7243 19.6144C88.5026 19.6144 89.2126 19.491 89.8512 19.2418L90.1257 20.4583C89.3795 20.784 88.4985 20.946 87.4818 20.946C86.2589 20.946 85.299 20.5858 84.6004 19.8669C83.9035 19.1472 83.5542 18.1799 83.5542 16.9683C83.5542 15.7789 83.8788 14.7878 84.5289 13.9973C85.2094 13.1534 86.1291 12.7315 87.2862 12.7315C88.4228 12.7315 89.2833 13.1534 89.8677 13.9973C90.3304 14.666 90.563 15.4951 90.563 16.4797ZM88.8921 16.0249C88.9045 15.5042 88.7894 15.0559 88.5519 14.6767C88.2486 14.1882 87.7818 13.9447 87.1564 13.9447C86.5835 13.9447 86.1167 14.1824 85.7617 14.6595C85.4699 15.0386 85.2965 15.4943 85.2431 16.0232L88.8921 16.0249Z" fill="black"/>
<path d="M27.3224 5.98012C26.835 5.98012 26.4134 5.95627 26.0625 5.91597V0.623834C26.5533 0.547952 27.0493 0.51055 27.5459 0.51197C29.5554 0.51197 30.4808 1.50147 30.4808 3.11444C30.4808 4.975 29.3877 5.98012 27.3224 5.98012ZM27.6166 1.19055C27.3454 1.19055 27.1145 1.207 26.923 1.24649V5.26946C27.0265 5.28591 27.2254 5.29331 27.5048 5.29331C28.8215 5.29331 29.571 4.54317 29.571 3.1383C29.571 1.88559 28.893 1.19055 27.6166 1.19055ZM33.3647 6.02043C32.2321 6.02043 31.4982 5.17405 31.4982 4.02498C31.4982 2.82738 32.2478 1.9736 33.4288 1.9736C34.5448 1.9736 35.2952 2.77967 35.2952 3.96164C35.2952 5.17405 34.5218 6.02043 33.3647 6.02043ZM33.3975 2.60365C32.7754 2.60365 32.3768 3.186 32.3768 4.0003C32.3768 4.79898 32.7836 5.38132 33.3893 5.38132C33.995 5.38132 34.4018 4.75867 34.4018 3.98385C34.4018 3.19423 34.0032 2.60365 33.3975 2.60365ZM41.7533 2.05338L40.5411 5.93242H39.7513L39.2491 4.24788C39.1243 3.83584 39.0203 3.41773 38.9377 2.99518H38.9212C38.8579 3.41795 38.7379 3.84156 38.6106 4.24788L38.0763 5.93242H37.2783L36.1376 2.05338H37.0227L37.4616 3.89749C37.5652 4.33672 37.6523 4.75127 37.7246 5.14279H37.741C37.8043 4.81625 37.9079 4.40828 38.0599 3.90571L38.6106 2.05421H39.3124L39.8392 3.86623C39.9666 4.30546 40.0702 4.73646 40.1507 5.14361H40.1737C40.2296 4.74469 40.3175 4.32109 40.4367 3.86623L40.9076 2.05421L41.7533 2.05338ZM46.216 5.93242H45.3547V3.70502C45.3547 3.01903 45.0917 2.67521 44.5731 2.67521C44.0627 2.67521 43.7118 3.11444 43.7118 3.62523V5.93242H42.8505V3.16215C42.8505 2.81916 42.8423 2.45149 42.8184 2.05256H43.5762L43.6165 2.65136H43.6403C43.8721 2.23681 44.3422 1.9736 44.869 1.9736C45.6826 1.9736 46.2168 2.59625 46.2168 3.6096L46.216 5.93242ZM48.5911 5.93242H47.729V0.273438H48.5911V5.93242ZM51.7314 6.02043C50.5997 6.02043 49.865 5.17405 49.865 4.02498C49.865 2.82738 50.6145 1.9736 51.7947 1.9736C52.9116 1.9736 53.6611 2.77967 53.6611 3.96164C53.662 5.17405 52.8878 6.02043 51.7314 6.02043ZM51.7635 2.60365C51.1413 2.60365 50.7427 3.186 50.7427 4.0003C50.7427 4.79898 51.1504 5.38132 51.7545 5.38132C52.361 5.38132 52.767 4.75867 52.767 3.98385C52.7678 3.19423 52.37 2.60365 51.7635 2.60365ZM57.057 5.93242L56.9946 5.48579H56.9716C56.7086 5.84523 56.3248 6.02043 55.8382 6.02043C55.1438 6.02043 54.6507 5.53349 54.6507 4.87876C54.6507 3.92134 55.4799 3.42618 56.9157 3.42618V3.35462C56.9157 2.84383 56.6453 2.58803 56.1111 2.58803C55.7289 2.58803 55.3936 2.68426 55.0986 2.87591L54.9235 2.30919C55.2818 2.08546 55.7289 1.9736 56.2541 1.9736C57.2666 1.9736 57.7778 2.50824 57.7778 3.57835V5.00707C57.7778 5.3986 57.7951 5.70211 57.8337 5.93324L57.057 5.93242ZM56.9387 4.0003C55.9821 4.0003 55.5021 4.23226 55.5021 4.78253C55.5021 5.18968 55.7495 5.38873 56.093 5.38873C56.5311 5.38873 56.9387 5.05396 56.9387 4.5991V4.0003ZM61.9602 5.93242L61.9199 5.30976H61.8961C61.6487 5.78025 61.2329 6.02043 60.6518 6.02043C59.7174 6.02043 59.0254 5.1979 59.0254 4.04061C59.0254 2.82738 59.7429 1.97278 60.7225 1.97278C61.2411 1.97278 61.6085 2.14797 61.8156 2.50002H61.8328V0.273438H62.695V4.88699C62.695 5.26206 62.704 5.61328 62.727 5.93242H61.9602ZM61.8328 3.64991C61.8328 3.10704 61.4737 2.64396 60.9255 2.64396C60.2869 2.64396 59.8965 3.21068 59.8965 4.00853C59.8965 4.79075 60.3017 5.32622 60.9083 5.32622C61.4499 5.32622 61.8328 4.85491 61.8328 4.29641V3.64991ZM68.1611 6.02043C67.0294 6.02043 66.2955 5.17405 66.2955 4.02498C66.2955 2.82738 67.045 1.9736 68.2252 1.9736C69.3421 1.9736 70.0916 2.77967 70.0916 3.96164C70.0925 5.17405 69.3191 6.02043 68.1611 6.02043ZM68.1932 2.60365C67.5718 2.60365 67.1732 3.186 67.1732 4.0003C67.1732 4.79898 67.5801 5.38132 68.1849 5.38132C68.7915 5.38132 69.1975 4.75867 69.1975 3.98385C69.1991 3.19423 68.8005 2.60365 68.1932 2.60365ZM74.7236 5.93242H73.8615V3.70502C73.8615 3.01903 73.5985 2.67521 73.0799 2.67521C72.5695 2.67521 72.2194 3.11444 72.2194 3.62523V5.93242H71.3573V3.16215C71.3573 2.81916 71.3491 2.45149 71.3252 2.05256H72.083L72.1233 2.65136H72.1471C72.378 2.23681 72.849 1.97278 73.3749 1.97278C74.1886 1.97278 74.7236 2.59543 74.7236 3.60878V5.93242ZM80.5185 2.69989H79.5709V4.58347C79.5709 5.06301 79.7369 5.30236 80.0722 5.30236C80.2243 5.30236 80.3517 5.28591 80.4544 5.26206L80.4782 5.91679C80.3114 5.98095 80.0878 6.01302 79.81 6.01302C79.1312 6.01302 78.7252 5.63795 78.7252 4.65586V2.69989H78.1598V2.05338H78.7252V1.34272L79.5709 1.08692V2.05256H80.5185V2.69989ZM85.0781 5.93242H84.2176V3.72147C84.2176 3.02725 83.9555 2.67604 83.4361 2.67604C82.9898 2.67604 82.5739 2.97955 82.5739 3.59398V5.93242H81.7135V0.273438H82.5739V2.60365H82.5912C82.8624 2.18088 83.2553 1.97278 83.7566 1.97278C84.5768 1.97278 85.0781 2.61106 85.0781 3.62523V5.93242ZM89.7495 4.20018H87.1648C87.1813 4.93469 87.667 5.34925 88.3861 5.34925C88.7682 5.34925 89.12 5.28509 89.4307 5.16582L89.5646 5.76462C89.1981 5.92419 88.7666 6.00398 88.2645 6.00398C87.0522 6.00398 86.3347 5.23738 86.3347 4.04883C86.3347 2.85946 87.0695 1.96537 88.1675 1.96537C89.1578 1.96537 89.7791 2.69989 89.7791 3.80948C89.7847 3.94042 89.7748 4.07157 89.7495 4.20018ZM88.9597 3.58575C88.9597 2.98695 88.6581 2.56417 88.1075 2.56417C87.6127 2.56417 87.2215 2.99518 87.1656 3.58575H88.9597Z" fill="black"/>
</svg>
