<?xml version="1.0" encoding="utf-8"?>
<!-- Generator: Adobe Illustrator 24.3.0, SVG Export Plug-In . SVG Version: 6.00 Build 0)  -->
<svg version="1.1" id="Layer_1" xmlns="http://www.w3.org/2000/svg" xmlns:xlink="http://www.w3.org/1999/xlink" x="0px" y="0px"
	 viewBox="0 0 72 72" style="enable-background:new 0 0 72 72;" xml:space="preserve">
<style type="text/css">
	.st0{fill:#B2FA09;}
	.st1{fill:#A78966;}
	.st2{fill:#806749;}
	.st3{fill:#FEE9AB;}
	.st4{fill:#FFD422;}
	.st5{fill:#C6C5CA;}
	.st6{fill:#46F8FF;}
	.st7{fill:#FF3051;}
	.st8{fill:#D80027;}
	.st9{fill:#7ED63E;}
	.st10{fill:#898890;}
	.st11{fill:#00D7DF;}
</style>
<g id="Setting">
	<circle className="st0" cx="67.2" cy="26.4" r="3.6"/>
	<path className="st1" d="M70.8,34.8V42l-8.2,1.4c-0.6,2.2-1.5,4.3-2.6,6.2l4.8,6.8l-8.5,8.5L49.6,60c-2,1.1-4.1,2-6.2,2.6L42,70.8H30
		l-1.4-8.2c-2.2-0.6-4.3-1.5-6.2-2.6l-6.8,4.8l-8.5-8.5l4.8-6.8c-1.1-2-2-4.1-2.6-6.2L1.2,42v-7.2H70.8z"/>
	<path className="st2" d="M62.6,43.4c-0.6,2.2-1.5,4.3-2.6,6.2l4.8,6.8l-8.5,8.5L49.6,60c-2,1.1-4.1,2-6.2,2.6L42,70.8h-6v-9.6
		c13.9,0,25.2-11.3,25.2-25.2c0-0.4,0-0.8,0-1.2h9.6V42L62.6,43.4z"/>
	<path className="st3" d="M60,34.8c0,13.2-10.7,24-24,24S12,48,12,34.8H60z"/>
	<path className="st4" d="M60,34.8c0,13.2-10.7,24-24,24c0,0,0,0,0,0c-0.8,0-1.6,0-2.4-0.1c12.3-1.2,21.6-11.5,21.6-23.9H60z"/>
	<path className="st5" d="M19.2,10.8h33.6c1.3,0,2.4,1.1,2.4,2.4v21.6c0,1.3-1.1,2.4-2.4,2.4H19.2c-1.3,0-2.4-1.1-2.4-2.4V13.2
		C16.8,11.9,17.9,10.8,19.2,10.8z"/>
	<path className="st6" d="M26.4,15.6h19.2c2.6,0,4.8,2.1,4.8,4.8v2.4c0,2.6-2.1,4.8-4.8,4.8H26.4c-2.6,0-4.8-2.1-4.8-4.8v-2.4
		C21.6,17.8,23.8,15.6,26.4,15.6z"/>
	<circle className="st3" cx="30" cy="21.6" r="2.4"/>
	<circle className="st7" cx="67.2" cy="14.4" r="3.6"/>
	<path className="st8" d="M70.8,14.4c0,2-1.6,3.6-3.6,3.6c-0.6,0-1.3-0.2-1.8-0.5c1.7-1,2.3-3.2,1.3-4.9c-0.3-0.6-0.8-1-1.3-1.3
		c1.7-1,3.9-0.4,4.9,1.3C70.6,13.2,70.8,13.8,70.8,14.4z"/>
	<path className="st9" d="M70.8,26.4c0,2-1.6,3.6-3.6,3.6c-0.6,0-1.3-0.2-1.8-0.5c1.7-1,2.3-3.2,1.3-4.9c-0.3-0.6-0.8-1-1.3-1.3
		c1.7-1,3.9-0.4,4.9,1.3C70.6,25.2,70.8,25.8,70.8,26.4L70.8,26.4z"/>
	<path className="st10" d="M55.2,13.2v21.6c0,1.3-1.1,2.4-2.4,2.4h-3.6c1.3,0,2.4-1.1,2.4-2.4V13.2c0-1.3-1.1-2.4-2.4-2.4h3.6
		C54.1,10.8,55.2,11.9,55.2,13.2z"/>
	<path className="st11" d="M50.4,20.4v2.4c0,2.6-2.1,4.8-4.8,4.8h-4.8c2.6,0,4.8-2.1,4.8-4.8v-2.4c0-2.6-2.1-4.8-4.8-4.8h4.8
		C48.2,15.6,50.4,17.8,50.4,20.4z"/>
	<path className="st0" d="M45.6,8.4v2.4H26.4V8.4c0-1.3,1.1-2.4,2.4-2.4h14.4C44.5,6,45.6,7.1,45.6,8.4z"/>
	<path className="st9" d="M45.6,8.4v2.4h-4.8V8.4c0-1.3-1.1-2.4-2.4-2.4h4.8C44.5,6,45.6,7.1,45.6,8.4z"/>
	<circle className="st3" cx="42" cy="21.6" r="2.4"/>
	<path className="st4" d="M44.4,21.6c0,1.3-1.1,2.4-2.4,2.4c-0.4,0-0.8-0.1-1.2-0.3c1.1-0.7,1.5-2.1,0.9-3.3c-0.2-0.4-0.5-0.7-0.9-0.9
		c1.1-0.7,2.6-0.3,3.3,0.9C44.3,20.8,44.4,21.2,44.4,21.6z"/>
	<path className="st4" d="M32.4,21.6c0,1.3-1.1,2.4-2.4,2.4c-0.4,0-0.8-0.1-1.2-0.3c1.1-0.7,1.5-2.1,0.9-3.3c-0.2-0.4-0.5-0.7-0.9-0.9
		c1.1-0.7,2.6-0.3,3.3,0.9C32.3,20.8,32.4,21.2,32.4,21.6z"/>
	<path className="st7" d="M39.6,3.6V6h-7.2V3.6c0-1.3,1.1-2.4,2.4-2.4h2.4C38.5,1.2,39.6,2.3,39.6,3.6z"/>
	<path className="st8" d="M39.6,3.6V6H36V3.6c0-1.1-0.7-2-1.8-2.3c0.2-0.1,0.4-0.1,0.6-0.1h2.4C38.5,1.2,39.6,2.3,39.6,3.6z"/>
	<circle className="st0" cx="4.8" cy="14.4" r="3.6"/>
	<path className="st9" d="M8.4,14.4c0,2-1.6,3.6-3.6,3.6c-0.6,0-1.3-0.2-1.8-0.5c1.7-1,2.3-3.2,1.3-4.9c-0.3-0.6-0.8-1-1.3-1.3
		c1.7-1,3.9-0.4,4.9,1.3C8.2,13.2,8.4,13.8,8.4,14.4z"/>
	<circle className="st7" cx="4.8" cy="26.4" r="3.6"/>
	<path className="st8" d="M8.4,26.4c0,2-1.6,3.6-3.6,3.6c-0.6,0-1.3-0.2-1.8-0.5c1.7-1,2.3-3.2,1.3-4.9c-0.3-0.6-0.8-1-1.3-1.3
		c1.7-1,3.9-0.4,4.9,1.3C8.2,25.2,8.4,25.8,8.4,26.4L8.4,26.4z"/>
	<path d="M26.4,28.8h19.2c3.3,0,6-2.7,6-6v-2.4c0-3.3-2.7-6-6-6H26.4c-3.3,0-6,2.7-6,6v2.4C20.4,26.1,23.1,28.8,26.4,28.8z
		 M22.8,20.4c0-2,1.6-3.6,3.6-3.6h19.2c2,0,3.6,1.6,3.6,3.6v2.4c0,2-1.6,3.6-3.6,3.6H26.4c-2,0-3.6-1.6-3.6-3.6V20.4z"/>
	<path d="M30,25.2c2,0,3.6-1.6,3.6-3.6S32,18,30,18s-3.6,1.6-3.6,3.6S28,25.2,30,25.2z M30,20.4c0.7,0,1.2,0.5,1.2,1.2
		c0,0.7-0.5,1.2-1.2,1.2s-1.2-0.5-1.2-1.2C28.8,20.9,29.3,20.4,30,20.4z"/>
	<path d="M42,25.2c2,0,3.6-1.6,3.6-3.6S44,18,42,18s-3.6,1.6-3.6,3.6S40,25.2,42,25.2z M42,20.4c0.7,0,1.2,0.5,1.2,1.2
		c0,0.7-0.5,1.2-1.2,1.2c-0.7,0-1.2-0.5-1.2-1.2C40.8,20.9,41.3,20.4,42,20.4z"/>
	<path d="M31.2,31.2h9.6v2.4h-9.6V31.2z"/>
	<path d="M24,31.2h2.4v2.4H24V31.2z"/>
	<path d="M45.6,31.2H48v2.4h-2.4V31.2z"/>
	<path d="M62.6,27.6c0.7,2.6,3.3,4.1,5.8,3.4c2.6-0.7,4.1-3.3,3.4-5.8c-0.7-2.6-3.3-4.1-5.8-3.4c-1.7,0.4-3,1.8-3.4,3.4h-6.2v-2.4
		H60c0.7,0,1.2-0.5,1.2-1.2v-6h1.4c0.7,2.6,3.3,4.1,5.8,3.4c2.6-0.7,4.1-3.3,3.4-5.8c-0.7-2.6-3.3-4.1-5.8-3.4
		c-1.7,0.4-3,1.8-3.4,3.4H60c-0.7,0-1.2,0.5-1.2,1.2v6h-2.4v-7.2c0-2-1.6-3.6-3.6-3.6h-6V8.4c0-2-1.6-3.6-3.6-3.6h-2.4V3.6
		c0-2-1.6-3.6-3.6-3.6h-2.4c-2,0-3.6,1.6-3.6,3.6v1.2h-2.4c-2,0-3.6,1.6-3.6,3.6v1.2h-6c-2,0-3.6,1.6-3.6,3.6v7.2h-2.4v-6
		c0-0.7-0.5-1.2-1.2-1.2H9.4c-0.7-2.6-3.3-4.1-5.8-3.4C1,10.4-0.5,13,0.2,15.6s3.3,4.1,5.8,3.4c1.7-0.4,3-1.8,3.4-3.4h1.4v6
		c0,0.7,0.5,1.2,1.2,1.2h3.6v2.4H9.4c-0.7-2.6-3.3-4.1-5.8-3.4s-4.1,3.3-3.4,5.8s3.3,4.1,5.8,3.4c1.7-0.4,3-1.8,3.4-3.4h6.2v6H1.2
		c-0.7,0-1.2,0.5-1.2,1.2V42c0,0.6,0.4,1.1,1,1.2l7.5,1.2c0.5,1.8,1.2,3.5,2.1,5.1l-4.4,6.2c-0.3,0.5-0.3,1.1,0.1,1.5l8.5,8.5
		c0.4,0.4,1.1,0.5,1.5,0.1l6.2-4.4c1.6,0.9,3.3,1.6,5.1,2.1l1.2,7.5c0.1,0.6,0.6,1,1.2,1h12c0.6,0,1.1-0.4,1.2-1l1.2-7.5
		c1.8-0.5,3.5-1.2,5.1-2.1l6.2,4.4c0.5,0.3,1.1,0.3,1.5-0.1l8.5-8.5c0.4-0.4,0.5-1.1,0.1-1.5l-4.4-6.2c0.9-1.6,1.6-3.3,2.1-5.1
		l7.5-1.2c0.6-0.1,1-0.6,1-1.2v-7.2c0-0.7-0.5-1.2-1.2-1.2H56.4v-6H62.6z M67.2,24c1.3,0,2.4,1.1,2.4,2.4c0,1.3-1.1,2.4-2.4,2.4
		s-2.4-1.1-2.4-2.4C64.8,25.1,65.9,24,67.2,24z M67.2,12c1.3,0,2.4,1.1,2.4,2.4s-1.1,2.4-2.4,2.4s-2.4-1.1-2.4-2.4S65.9,12,67.2,12z
		 M4.8,16.8c-1.3,0-2.4-1.1-2.4-2.4S3.5,12,4.8,12s2.4,1.1,2.4,2.4S6.1,16.8,4.8,16.8z M4.8,28.8c-1.3,0-2.4-1.1-2.4-2.4
		c0-1.3,1.1-2.4,2.4-2.4s2.4,1.1,2.4,2.4C7.2,27.7,6.1,28.8,4.8,28.8z M19.2,38.4h33.6c1.5,0,2.9-1,3.4-2.4h2.6
		c-0.6,12.6-11.3,22.2-23.9,21.6C23.2,57,13.9,47.7,13.3,36h2.6C16.3,37.4,17.7,38.4,19.2,38.4z M33.6,3.6c0-0.7,0.5-1.2,1.2-1.2
		h2.4c0.7,0,1.2,0.5,1.2,1.2v1.2h-4.8V3.6z M27.6,8.4c0-0.7,0.5-1.2,1.2-1.2h14.4c0.7,0,1.2,0.5,1.2,1.2v1.2H27.6V8.4z M18,13.2
		c0-0.7,0.5-1.2,1.2-1.2h33.6c0.7,0,1.2,0.5,1.2,1.2v21.6c0,0.7-0.5,1.2-1.2,1.2H19.2c-0.7,0-1.2-0.5-1.2-1.2V13.2z M61.2,36h8.4v5
		l-7.2,1.2c-0.5,0.1-0.8,0.4-1,0.9c-0.6,2.1-1.4,4.1-2.5,6c-0.2,0.4-0.2,0.9,0.1,1.3l4.2,5.9l-7,7L50.3,59c-0.4-0.3-0.9-0.3-1.3-0.1
		c-1.9,1.1-3.9,1.9-6,2.5c-0.5,0.1-0.8,0.5-0.9,1L41,69.6H31l-1.2-7.2c-0.1-0.5-0.4-0.8-0.9-1c-2.1-0.6-4.1-1.4-6-2.5
		c-0.4-0.2-0.9-0.2-1.3,0.1l-5.9,4.2l-7-7l4.2-5.9c0.3-0.4,0.3-0.9,0.1-1.3c-1.1-1.9-1.9-3.9-2.5-6c-0.1-0.5-0.5-0.8-1-0.9L2.4,41
		v-5h8.4c0.7,13.9,12.4,24.6,26.3,24C50.2,59.4,60.6,49,61.2,36L61.2,36z"/>
</g>
</svg>
