<?xml version="1.0" encoding="utf-8"?>
<!-- Generator: Adobe Illustrator 24.3.0, SVG Export Plug-In . SVG Version: 6.00 Build 0)  -->
<svg version="1.1" id="Layer_1" xmlns="http://www.w3.org/2000/svg" xmlns:xlink="http://www.w3.org/1999/xlink" x="0px" y="0px"
	 viewBox="0 0 72 72" style="enable-background:new 0 0 72 72;" xml:space="preserve">
<style type="text/css">
	.st0{fill:#99E6FC;}
	.st1{fill:#62DBFB;}
	.st2{fill:#FED44C;}
	.st3{fill:#F2B84C;}
	.st4{fill:#FD4754;}
	.st5{fill:#49D690;}
	.st6{fill:#3D5B54;}
</style>
<g>
	<g>
		<path className="st0" d="M62.2,39.5v-7L56.3,31c-0.5-2-1.3-4-2.4-5.7L57,20l-5-5l-5.3,3.1C45,17,43.1,16.2,41,15.7l-1.5-5.9h-7
			L31,15.7c-2,0.5-4,1.3-5.7,2.4L20,15l-5,5l3.1,5.3C17,27,16.2,28.9,15.7,31l-5.9,1.5v7l5.9,1.5c0.5,2,1.3,4,2.4,5.7L15,52l5,5
			l5.3-3.1c1.8,1.1,3.7,1.9,5.7,2.4l1.5,5.9h7l1.5-5.9c2-0.5,4-1.3,5.7-2.4L52,57l5-5l-3.1-5.3c1.1-1.8,1.9-3.7,2.4-5.7L62.2,39.5z"
			/>
	</g>
	<g>
		<path className="st1" d="M43.6,17.5l0.9-0.6c-1.1-0.5-2.3-0.9-3.5-1.2l-1.5-5.9h-4.2l1.2,4.8c0.2,0.7,0.7,1.3,1.4,1.5
			c1.2,0.4,2.4,0.9,3.6,1.5C42.2,17.9,43,17.8,43.6,17.5z"/>
	</g>
	<g>
		<path className="st1" d="M41.5,54.5c-1.1,0.6-2.3,1.1-3.6,1.5c-0.7,0.2-1.2,0.8-1.4,1.5l-1.2,4.8h4.2l1.5-5.9c1.2-0.3,2.4-0.7,3.5-1.2
			l-0.9-0.6C43,54.2,42.2,54.1,41.5,54.5z"/>
	</g>
	<g>
		<path className="st1" d="M62.2,39.5v-7L56.3,31c-0.5-2-1.3-4-2.4-5.7L57,20l-5-5l-2.7,1.6l2.3,2.3c0.7,0.7,0.8,1.7,0.3,2.6l-1.7,2.8
			c-0.4,0.6-0.4,1.4,0,2.1c0.6,1.1,1.1,2.3,1.5,3.6c0.2,0.7,0.8,1.2,1.5,1.4l3.2,0.8c0.9,0.2,1.6,1.1,1.6,2v3.8c0,1-0.7,1.8-1.6,2
			l-3.2,0.8c-0.7,0.2-1.3,0.7-1.5,1.4c-0.4,1.2-0.9,2.4-1.5,3.6c-0.3,0.6-0.3,1.4,0,2.1l1.7,2.8c0.5,0.8,0.4,1.9-0.3,2.6l-2.3,2.3
			L52,57l5-5l-3.1-5.3c1.1-1.8,1.9-3.7,2.4-5.7L62.2,39.5z"/>
	</g>
	<g>
		<ellipse className="st2" cx="36" cy="36" rx="15.4" ry="15.4"/>
	</g>
	<g>
		<path className="st3" d="M36,20.6c-0.7,0-1.4,0-2.1,0.1c7.5,1,13.3,7.5,13.3,15.3s-5.8,14.2-13.3,15.3c0.7,0.1,1.4,0.1,2.1,0.1
			c8.5,0,15.4-6.9,15.4-15.4S44.5,20.6,36,20.6z"/>
	</g>
	<g>
		<path d="M39.5,63.3h-7c-0.5,0-0.9-0.3-1-0.8l-1.4-5.3c-1.7-0.5-3.3-1.1-4.9-2l-4.7,2.8c-0.4,0.2-0.9,0.2-1.3-0.2l-5-5
			c-0.3-0.3-0.4-0.9-0.2-1.3l2.8-4.7c-0.9-1.5-1.5-3.2-2-4.9l-5.3-1.4c-0.5-0.1-0.8-0.5-0.8-1v-7c0-0.5,0.3-0.9,0.8-1l5.3-1.4
			c0.5-1.7,1.1-3.3,2-4.9l-2.8-4.7c-0.2-0.4-0.2-0.9,0.2-1.3l5-5c0.3-0.3,0.9-0.4,1.3-0.2l4.7,2.8c1.5-0.9,3.2-1.5,4.9-2l1.4-5.3
			c0.1-0.5,0.5-0.8,1-0.8h7c0.5,0,0.9,0.3,1,0.8l1.4,5.3c0.1,0,0.2,0.1,0.4,0.1c0.6,0.2,0.9,0.8,0.7,1.3c-0.2,0.6-0.8,0.9-1.3,0.7
			c-0.3-0.1-0.6-0.2-0.9-0.2c-0.4-0.1-0.7-0.4-0.8-0.8l-1.3-5.1h-5.4L32,16c-0.1,0.4-0.4,0.7-0.8,0.8c-1.9,0.5-3.7,1.2-5.4,2.2
			c-0.3,0.2-0.7,0.2-1.1,0l-4.6-2.7l-3.8,3.8l2.7,4.6c0.2,0.3,0.2,0.7,0,1.1c-1,1.7-1.8,3.5-2.2,5.4c-0.1,0.4-0.4,0.7-0.8,0.8
			l-5.1,1.3v5.4L16,40c0.4,0.1,0.7,0.4,0.8,0.8c0.5,1.9,1.2,3.7,2.2,5.4c0.2,0.3,0.2,0.7,0,1.1l-2.7,4.6l3.8,3.8l4.6-2.7
			c0.3-0.2,0.7-0.2,1.1,0c1.7,1,3.5,1.8,5.4,2.2c0.4,0.1,0.7,0.4,0.8,0.8l1.3,5.1h5.4L40,56c0.1-0.4,0.4-0.7,0.8-0.8
			c1.9-0.5,3.7-1.2,5.4-2.2c0.3-0.2,0.7-0.2,1.1,0l4.6,2.7l3.8-3.8L53,47.3c-0.2-0.3-0.2-0.7,0-1.1c1-1.7,1.8-3.5,2.2-5.4
			c0.1-0.4,0.4-0.7,0.8-0.8l5.1-1.3v-5.4L56,32c-0.4-0.1-0.7-0.4-0.8-0.8c-0.5-1.9-1.2-3.7-2.2-5.4c-0.2-0.3-0.2-0.7,0-1.1l2.7-4.6
			l-3.8-3.8L47.3,19c-0.3,0.2-0.7,0.2-1.1,0c-0.2-0.1-0.4-0.2-0.5-0.3c-0.5-0.3-0.7-0.9-0.4-1.4c0.3-0.5,0.9-0.7,1.4-0.4
			c0,0,0,0,0.1,0l4.7-2.8c0.4-0.2,0.9-0.2,1.3,0.2l5,5c0.3,0.3,0.4,0.9,0.2,1.3l-2.8,4.7c0.9,1.5,1.5,3.2,2,4.9l5.3,1.4
			c0.5,0.1,0.8,0.5,0.8,1v7c0,0.5-0.3,0.9-0.8,1l-5.3,1.4c-0.5,1.7-1.1,3.3-2,4.9l2.8,4.7c0.2,0.4,0.2,0.9-0.2,1.3l-5,5
			c-0.3,0.3-0.9,0.4-1.3,0.2l-4.7-2.8c-1.5,0.9-3.2,1.5-4.9,2l-1.4,5.3C40.4,62.9,40,63.3,39.5,63.3z"/>
	</g>
	<g>
		<path d="M36,52.4c-4,0-7.8-1.4-10.8-4c-3-2.6-4.9-6.1-5.5-10c-0.1-0.6,0.3-1.1,0.9-1.2c0.6-0.1,1.1,0.3,1.2,0.9
			c1,7,7.1,12.2,14.2,12.2c7,0,13.1-5.3,14.2-12.2c0.1-0.6,0.6-1,1.2-0.9c0.6,0.1,1,0.6,0.9,1.2c-0.6,3.9-2.5,7.4-5.5,10
			C43.8,51,40,52.4,36,52.4z"/>
	</g>
	<g>
		<path d="M20.8,34.7c-0.1,0-0.1,0-0.2,0c-0.6-0.1-1-0.6-0.9-1.2c0.6-3.8,2.5-7.4,5.5-10c3-2.6,6.8-4,10.8-4c4,0,7.8,1.4,10.8,4
			c3,2.6,4.9,6.1,5.5,10c0.1,0.6-0.3,1.1-0.9,1.2c-0.6,0.1-1.1-0.3-1.2-0.9C49.1,26.9,43,21.7,36,21.7c-7,0-13.1,5.2-14.2,12.2
			C21.7,34.4,21.3,34.7,20.8,34.7z"/>
	</g>
	<g>
		<path d="M36,10.8c-0.6,0-1.1-0.5-1.1-1.1V5.4c0-0.6,0.5-1.1,1.1-1.1c0.6,0,1.1,0.5,1.1,1.1v4.4C37.1,10.4,36.6,10.8,36,10.8z"/>
	</g>
	<g>
		<path d="M36,6.5c-1.8,0-3.2-1.5-3.2-3.2C32.8,1.5,34.2,0,36,0c1.8,0,3.2,1.5,3.2,3.2C39.2,5,37.8,6.5,36,6.5z M36,2.1
			c-0.6,0-1.1,0.5-1.1,1.1s0.5,1.1,1.1,1.1c0.6,0,1.1-0.5,1.1-1.1S36.6,2.1,36,2.1z"/>
	</g>
	<g>
		<path d="M36,67.6c-0.6,0-1.1-0.5-1.1-1.1v-4.4c0-0.6,0.5-1.1,1.1-1.1c0.6,0,1.1,0.5,1.1,1.1v4.4C37.1,67.2,36.6,67.6,36,67.6z"/>
	</g>
	<g>
		<path d="M36,72c-1.8,0-3.2-1.5-3.2-3.2s1.5-3.2,3.2-3.2c1.8,0,3.2,1.5,3.2,3.2S37.8,72,36,72z M36,67.6c-0.6,0-1.1,0.5-1.1,1.1
			s0.5,1.1,1.1,1.1c0.6,0,1.1-0.5,1.1-1.1S36.6,67.6,36,67.6z"/>
	</g>
	<g>
		<path d="M17.5,18.5c-0.3,0-0.5-0.1-0.7-0.3l-3.1-3.1c-0.4-0.4-0.4-1.1,0-1.5c0.4-0.4,1.1-0.4,1.5,0l3.1,3.1c0.4,0.4,0.4,1.1,0,1.5
			C18,18.4,17.7,18.5,17.5,18.5z"/>
	</g>
	<g>
		<path d="M12.8,16.1c-1.8,0-3.2-1.5-3.2-3.2c0-1.8,1.5-3.2,3.2-3.2c1.8,0,3.2,1.5,3.2,3.2C16.1,14.6,14.6,16.1,12.8,16.1z
			 M12.8,11.7c-0.6,0-1.1,0.5-1.1,1.1s0.5,1.1,1.1,1.1s1.1-0.5,1.1-1.1S13.5,11.7,12.8,11.7z"/>
	</g>
	<g>
		<path d="M57.6,58.7c-0.3,0-0.5-0.1-0.7-0.3l-3.1-3.1c-0.4-0.4-0.4-1.1,0-1.5c0.4-0.4,1.1-0.4,1.5,0l3.1,3.1c0.4,0.4,0.4,1.1,0,1.5
			C58.2,58.6,57.9,58.7,57.6,58.7z"/>
	</g>
	<g>
		<path d="M59.2,62.4c-1.8,0-3.2-1.5-3.2-3.2s1.5-3.2,3.2-3.2s3.2,1.5,3.2,3.2S61,62.4,59.2,62.4z M59.2,58c-0.6,0-1.1,0.5-1.1,1.1
			c0,0.6,0.5,1.1,1.1,1.1c0.6,0,1.1-0.5,1.1-1.1C60.3,58.5,59.8,58,59.2,58z"/>
	</g>
	<g>
		<path d="M9.8,37.1H5.4c-0.6,0-1.1-0.5-1.1-1.1c0-0.6,0.5-1.1,1.1-1.1h4.4c0.6,0,1.1,0.5,1.1,1.1C10.8,36.6,10.4,37.1,9.8,37.1z"/>
	</g>
	<g>
		<path d="M3.2,39.2C1.5,39.2,0,37.8,0,36c0-1.8,1.5-3.2,3.2-3.2c1.8,0,3.2,1.5,3.2,3.2C6.5,37.8,5,39.2,3.2,39.2z M3.2,34.9
			c-0.6,0-1.1,0.5-1.1,1.1c0,0.6,0.5,1.1,1.1,1.1s1.1-0.5,1.1-1.1C4.4,35.4,3.9,34.9,3.2,34.9z"/>
	</g>
	<g>
		<path d="M66.6,37.1h-4.4c-0.6,0-1.1-0.5-1.1-1.1c0-0.6,0.5-1.1,1.1-1.1h4.4c0.6,0,1.1,0.5,1.1,1.1C67.6,36.6,67.2,37.1,66.6,37.1z
			"/>
	</g>
	<g>
		<path d="M68.8,39.2c-1.8,0-3.2-1.5-3.2-3.2c0-1.8,1.5-3.2,3.2-3.2S72,34.2,72,36C72,37.8,70.5,39.2,68.8,39.2z M68.8,34.9
			c-0.6,0-1.1,0.5-1.1,1.1c0,0.6,0.5,1.1,1.1,1.1s1.1-0.5,1.1-1.1C69.9,35.4,69.4,34.9,68.8,34.9z"/>
	</g>
	<g>
		<path d="M14.4,58.7c-0.3,0-0.5-0.1-0.7-0.3c-0.4-0.4-0.4-1.1,0-1.5l3.1-3.1c0.4-0.4,1.1-0.4,1.5,0c0.4,0.4,0.4,1.1,0,1.5l-3.1,3.1
			C14.9,58.6,14.6,58.7,14.4,58.7z"/>
	</g>
	<g>
		<path d="M12.8,62.4c-1.8,0-3.2-1.5-3.2-3.2s1.5-3.2,3.2-3.2c1.8,0,3.2,1.5,3.2,3.2S14.6,62.4,12.8,62.4z M12.8,58
			c-0.6,0-1.1,0.5-1.1,1.1c0,0.6,0.5,1.1,1.1,1.1s1.1-0.5,1.1-1.1C14,58.5,13.5,58,12.8,58z"/>
	</g>
	<g>
		<path d="M54.5,18.5c-0.3,0-0.5-0.1-0.7-0.3c-0.4-0.4-0.4-1.1,0-1.5l3.1-3.1c0.4-0.4,1.1-0.4,1.5,0s0.4,1.1,0,1.5l-3.1,3.1
			C55.1,18.4,54.8,18.5,54.5,18.5z"/>
	</g>
	<g>
		<path d="M59.2,16.1c-1.8,0-3.2-1.5-3.2-3.2c0-1.8,1.5-3.2,3.2-3.2s3.2,1.5,3.2,3.2C62.4,14.6,61,16.1,59.2,16.1z M59.2,11.7
			c-0.6,0-1.1,0.5-1.1,1.1s0.5,1.1,1.1,1.1c0.6,0,1.1-0.5,1.1-1.1S59.8,11.7,59.2,11.7z"/>
	</g>
	<g>
		<g>
			<g>
				<path d="M33,41.4c-0.4,0-0.8-0.3-1-0.7l-2.5-6.5l-2.5,6.5c-0.2,0.5-0.8,0.8-1.4,0.6c-0.5-0.2-0.8-0.8-0.6-1.4l3.3-8.6
					c0,0,0,0,0,0c0.2-0.5,0.6-0.8,1.2-0.8c0,0,0,0,0,0c0.5,0,1,0.3,1.2,0.8c0,0,0,0,0,0L34,40c0.2,0.5-0.1,1.2-0.6,1.4
					C33.3,41.4,33.1,41.4,33,41.4z"/>
			</g>
			<g>
				<path d="M32,39.3h-4.9c-0.6,0-1.1-0.5-1.1-1.1s0.5-1.1,1.1-1.1H32c0.6,0,1.1,0.5,1.1,1.1S32.6,39.3,32,39.3z"/>
			</g>
		</g>
		<g>
			<g>
				<path d="M45.9,41.4c-0.6,0-1.1-0.5-1.1-1.1v-8.7c0-0.6,0.5-1.1,1.1-1.1s1.1,0.5,1.1,1.1v8.7C46.9,41,46.5,41.4,45.9,41.4z"/>
			</g>
		</g>
		<g>
			<g>
				<path d="M36.9,41.4c-0.6,0-1.1-0.5-1.1-1.1v-8.7c0-0.6,0.5-1.1,1.1-1.1s1.1,0.5,1.1,1.1v8.7C37.9,41,37.4,41.4,36.9,41.4z"/>
			</g>
			<g>
				<path d="M36.9,37.6c-0.3,0-0.5-0.1-0.7-0.3c-0.2-0.2-0.3-0.5-0.3-0.7c0,0,0-1.8,0-2.5c0-0.6,0-2.5,0-2.5c0-0.3,0.1-0.5,0.3-0.7
					s0.5-0.3,0.7-0.3h2.4c2,0,3.6,1.6,3.6,3.5c0,1.9-1.6,3.5-3.6,3.5C38.6,37.6,36.9,37.6,36.9,37.6C36.9,37.6,36.9,37.6,36.9,37.6z
					 M37.9,32.7c0,0.5,0,1.1,0,1.4c0,0.3,0,0.9,0,1.4c0.5,0,1,0,1.4,0c0.8,0,1.5-0.6,1.5-1.4c0-0.8-0.7-1.4-1.5-1.4H37.9z"/>
			</g>
		</g>
	</g>
	<g>
		<circle className="st4" cx="36" cy="3.2" r="1.8"/>
	</g>
	<g>
		<circle className="st5" cx="68.8" cy="36" r="1.8"/>
	</g>
	<g>
		<circle className="st2" cx="59.2" cy="59.2" r="1.8"/>
	</g>
	<g>
		<circle className="st4" cx="36" cy="68.8" r="1.8"/>
	</g>
	<g>
		<circle className="st2" cx="12.8" cy="12.8" r="1.8"/>
	</g>
	<g>
		<circle className="st5" cx="3.2" cy="36" r="1.8"/>
	</g>
	<g>
		<circle className="st6" cx="12.8" cy="59.2" r="1.8"/>
	</g>
	<g>
		<circle className="st6" cx="59.2" cy="12.8" r="1.8"/>
	</g>
</g>
</svg>
