<?xml version="1.0" encoding="utf-8"?>
<!-- Generator: Adobe Illustrator 24.3.0, SVG Export Plug-In . SVG Version: 6.00 Build 0)  -->
<svg version="1.1" id="_x33_0" xmlns="http://www.w3.org/2000/svg" xmlns:xlink="http://www.w3.org/1999/xlink" x="0px" y="0px"
	 viewBox="0 0 72 72" style="enable-background:new 0 0 72 72;" xml:space="preserve">
<style type="text/css">
	.st0{fill:#656D78;}
	.st1{fill:#B4DD7F;}
	.st2{fill:#FCD770;}
	.st3{fill:#FFC729;}
	.st4{fill:#FF826E;}
	.st5{fill:#FC6E51;}
	.st6{fill:#E6E9ED;}
	.st7{fill:#F0D0B4;}
	.st8{fill:#AAB2BD;}
	.st9{fill:#CCD1D9;}
	.st10{fill:#69D6F4;}
</style>
<g>
	<g>
		<g>
			<path className="st0" d="M15.1,8.1L14,8.4c-2,0.5-3.4,2.3-3.5,4.4H9.3c-0.9,0-1.8,0.4-2.4,1l-0.7-2C5.9,10.9,5.8,10,5.8,9.2
				c0-4.4,3.6-8,8-8H21c2.2,0,4.2,0.9,5.6,2.3c1,1,1.8,2.3,2.3,5l0,0.7c0,0.9-0.1,1.7-0.4,2.5l-0.7,2c-0.6-0.6-1.5-1-2.4-1h-1.2
				c0-1.3-1-2.3-2.3-2.3h-4.6c-0.6,0-1.2-0.3-1.6-0.7C15.4,9.3,15.1,8.8,15.1,8.1z"/>
		</g>
		<g>
			<path className="st1" d="M17.4,51.1v7h-2.3h-7H7c-3.2,0-5.8-2.6-5.8-5.8V38c0-3.9,2.7-7.2,6.5-8l1.8-0.4l2.3,6.1l2.6,6.7v0l0.6,1.6v7
				L17.4,51.1z"/>
		</g>
		<g>
			<path className="st1" d="M29,44.1h-9.3l0.6-1.6v0l2.6-6.7l2.3-6.1l1.8,0.4c0.8,0.2,1.5,0.4,2.2,0.8c2.6,1.4,4.4,4.1,4.4,7.2v18.9v3.5
				v1.2v9.3H8.1V58.1h7v5.8H29V44.1z"/>
		</g>
		<g>
			<path className="st2" d="M18.6,37.2l1.8,5.3v0l-0.6,1.6h-4.6l-0.6-1.6v0l1.8-5.3H18.6z"/>
		</g>
		<g>
			<path className="st3" d="M20.8,34.1l-2.2,3.1h-2.3L14,34.1l3.4-2.7L20.8,34.1z"/>
		</g>
		<g>
			<path className="st4" d="M14,34.1l2.2,3.1l-1.8,5.3l-2.6-6.7h0L14,34.1z"/>
		</g>
		<g>
			<path className="st4" d="M23,35.8l-2.6,6.7l-1.8-5.3l2.2-3.1L23,35.8L23,35.8z"/>
		</g>
		<g>
			<path className="st5" d="M20.8,34.1l-3.4-2.7l4.6-2.3l3.2,0.7L23,35.8h0L20.8,34.1z"/>
		</g>
		<g>
			<path className="st5" d="M14,34.1l-2.1,1.7h0l-2.3-6.1l3.2-0.7l4.6,2.3L14,34.1z"/>
		</g>
		<g>
			<path className="st6" d="M17.4,58.1h3.5c1.9,0,3.5-1.6,3.5-3.5c0-1-0.4-1.8-1-2.5c-0.6-0.6-1.5-1-2.5-1h-3.5h-2.3v-7h4.6H29v19.7
				H15.1v-5.8H17.4z"/>
		</g>
		<g>
			<path className="st7" d="M23.4,52.1c0.6,0.6,1,1.5,1,2.5c0,1.9-1.6,3.5-3.5,3.5h-3.5v-7h3.5C21.9,51.1,22.7,51.5,23.4,52.1L23.4,52.1
				z"/>
		</g>
		<g>
			<path className="st7" d="M20.9,23.4l1.1,5.6l-4.6,2.3L12.8,29l1.1-5.6l0,0c1,0.6,2.2,1,3.5,1C18.7,24.4,19.9,24,20.9,23.4L20.9,23.4z
				"/>
		</g>
		<g>
			<path className="st7" d="M28,18.7c-0.6,0.6-1.5,1-2.5,1H24c0.3-0.7,0.4-1.5,0.4-2.3v-4.6h1.2c0.9,0,1.8,0.4,2.4,1
				c0.7,0.6,1.1,1.5,1.1,2.5C29,17.2,28.6,18.1,28,18.7L28,18.7z"/>
		</g>
		<g>
			<path className="st7" d="M10.8,19.7c-0.3-0.7-0.4-1.5-0.4-2.3v-4.5c0,0,0-0.1,0-0.1c0.1-2.1,1.5-3.9,3.5-4.4l1.1-0.3
				c0,0.6,0.3,1.2,0.7,1.6c0.4,0.4,1,0.7,1.6,0.7h4.6c1.3,0,2.3,1,2.3,2.3v4.6c0,0.8-0.1,1.6-0.4,2.3c-0.6,1.6-1.6,2.9-3.1,3.7
				c-1,0.6-2.2,1-3.5,1s-2.5-0.3-3.5-1c-0.5-0.3-1-0.7-1.4-1.1C11.8,21.6,11.2,20.7,10.8,19.7z"/>
		</g>
		<g>
			<path className="st7" d="M10.5,17.4c0,0.8,0.1,1.6,0.4,2.3H9.3c-1,0-1.8-0.4-2.5-1c-0.6-0.6-1-1.5-1-2.5c0-1,0.4-1.9,1.1-2.5
				c0.6-0.6,1.5-1,2.4-1h1.2v0.1V17.4z"/>
		</g>
		<g>
			<path className="st3" d="M31.5,8.6c1.3,1.3,3.3,1.7,5.1,1c0,0,0,0,0.1,0c1.7-0.7,2.9-2.4,2.9-4.3V3.5h9.3v1.8c0,1.9,1.1,3.6,2.9,4.3
				c0,0,0,0,0.1,0c1.7,0.7,3.8,0.3,5.1-1l1.3-1.3l6.6,6.6l-1.3,1.3c-1.3,1.3-1.7,3.3-1,5.1c0,0,0,0,0,0.1c0.7,1.7,2.4,2.9,4.3,2.9
				h1.8v8.1h-9.7c0.3-1.1,0.4-2.3,0.4-3.5c0-8.3-6.8-15.1-15.1-15.1S29,19.5,29,27.9c0,1,0.1,2,0.3,2.9c-0.7-0.4-1.4-0.6-2.2-0.8
				l-1.8-0.4L22.1,29l-1.1-5.6l0,0c1.4-0.8,2.5-2.1,3.1-3.7h1.6c1,0,1.8-0.4,2.5-1c0.6-0.6,1-1.5,1-2.5c0-1-0.4-1.9-1.1-2.5l0.7-2
				C28.9,10.9,29,10,29,9.2l0-0.7h0l1.2-1.2L31.5,8.6z"/>
		</g>
		<g>
			<path className="st2" d="M33.7,27.9c0,1.4,0.3,2.8,0.8,4c-0.5,0.4-0.8,1.1-0.8,1.8V38c0-3.1-1.7-5.8-4.4-7.2c-0.2-1-0.3-1.9-0.3-2.9
				c0-8.3,6.8-15.1,15.1-15.1s15.1,6.8,15.1,15.1c0,1.2-0.1,2.4-0.4,3.5H54c0.4-1.1,0.6-2.3,0.6-3.5c0-5.8-4.7-10.5-10.5-10.5
				S33.7,22.1,33.7,27.9z"/>
		</g>
		<g>
			<path className="st8" d="M59.2,63.9v7H45.3v-7h11.6H59.2z"/>
		</g>
		<g>
			<path className="st9" d="M52.3,56.9h18.6v4.6c0,1.3-1,2.3-2.3,2.3h-2.3h-4.6h-2.3h-2.3H45.3H36c-1.3,0-2.3-1-2.3-2.3v-1.2v-3.5h4.6
				H43h4.6H52.3z"/>
		</g>
		<g>
			<path className="st10" d="M68.5,31.4h-9.7H54H36c-0.6,0-1.1,0.2-1.5,0.6c-0.5,0.4-0.8,1.1-0.8,1.8V38v18.9h37.2V33.7
				C70.8,32.4,69.8,31.4,68.5,31.4z"/>
		</g>
		<g>
			<path className="st2" d="M47.6,45.3h4.6v11.6h-4.6V45.3z"/>
		</g>
		<g>
			<path className="st2" d="M38.3,49.9H43v7h-4.6V49.9z"/>
		</g>
		<g>
			<circle className="st4" cx="62.7" cy="39.5" r="3.5"/>
		</g>
	</g>
	<g>
		<path d="M17.4,20.9c1.9,0,3.6-1,4.4-2.7l0.1-0.2l-2.1-1l-0.1,0.2c-0.4,0.9-1.3,1.4-2.3,1.4s-1.9-0.6-2.3-1.4L15,16.9l-2.1,1
			l0.1,0.2C13.9,19.9,15.5,20.9,17.4,20.9z"/>
		<path d="M68.5,65c1.9,0,3.5-1.6,3.5-3.5V33.7c0-1.5-1-2.8-2.3-3.3v-8.3h-3c-1.4,0-2.7-0.8-3.2-2.2c-0.6-1.3-0.3-2.8,0.7-3.8
			l2.1-2.1l-8.2-8.2L56,7.8c-1,1-2.5,1.3-3.9,0.7c-1.3-0.5-2.2-1.8-2.2-3.2v-3H38.3v3c0,1.4-0.8,2.7-2.2,3.2
			c-1.3,0.6-2.8,0.3-3.8-0.7l-2.1-2.1l-0.5,0.5C28.4,2.6,25,0,21,0h-7.2c-5,0-9.2,4.1-9.2,9.2c0,1,0.2,2,0.5,2.9l0.5,1.4
			c-0.6,0.8-0.9,1.7-0.9,2.8c0,2.6,2.1,4.6,4.6,4.6h0.8c0.6,1.2,1.4,2.3,2.5,3.1L11.8,28l-4.3,0.9C3.1,29.8,0,33.6,0,38v14.2
			c0,3.8,3.1,7,7,7v10.5H0V72h72v-2.3H60.4V65H68.5z M68.5,62.7h-1.2v-2.3H65v2.3h-2.3v-2.3h-2.3v2.3h-2.3v-2.3h-2.3v2.3H36
			c-0.6,0-1.2-0.5-1.2-1.2v-3.5h34.8v3.5C69.7,62.2,69.2,62.7,68.5,62.7z M30.4,30.1c-0.1-0.7-0.2-1.5-0.2-2.2
			c0-7.7,6.3-13.9,13.9-13.9s13.9,6.3,13.9,13.9c0,0.8-0.1,1.6-0.2,2.3h-2.3c0.2-0.8,0.2-1.5,0.2-2.3c0-6.4-5.2-11.6-11.6-11.6
			s-11.6,5.2-11.6,11.6c0,1.3,0.2,2.6,0.6,3.8c-0.1,0.2-0.2,0.4-0.3,0.6C32.1,31.4,31.3,30.7,30.4,30.1L30.4,30.1z M35.2,30.3
			c-0.2-0.8-0.3-1.6-0.3-2.4c0-5.1,4.2-9.3,9.3-9.3s9.3,4.2,9.3,9.3c0,0.8-0.1,1.6-0.3,2.3H36C35.7,30.2,35.4,30.2,35.2,30.3
			L35.2,30.3z M34.8,33.7c0-0.6,0.5-1.2,1.2-1.2h32.5c0.6,0,1.2,0.5,1.2,1.2v22.1H53.4V44.1h-7v11.6h-2.3v-7h-7v7h-2.3V33.7z
			 M51.1,55.7h-2.3v-9.3h2.3V55.7z M41.8,55.7h-2.3v-4.6h2.3V55.7z M34.8,64.8c0.4,0.1,0.8,0.2,1.2,0.2h8.1v4.6h-9.3V64.8z
			 M30.6,9.5c1.7,1.7,4.2,2.2,6.4,1.2c2.2-0.9,3.6-3,3.6-5.4V4.6h7v0.7c0,2.4,1.4,4.5,3.6,5.4c2.2,0.9,4.7,0.4,6.4-1.2L58.1,9
			l4.9,4.9l-0.5,0.5c-1.7,1.7-2.2,4.2-1.2,6.4c0.9,2.2,3,3.6,5.4,3.6h0.7v5.8h-7.2c0.1-0.8,0.2-1.5,0.2-2.3c0-9-7.3-16.3-16.3-16.3
			s-16.3,7.3-16.3,16.3c0,0.4,0,0.8,0.1,1.2c-0.2,0-0.4-0.1-0.6-0.1L23.1,28L22.2,24c1.1-0.8,1.9-1.8,2.5-3.1h0.8
			c2.6,0,4.6-2.1,4.6-4.6c0-1-0.4-2-0.9-2.8l0.5-1.4c0.3-0.9,0.5-1.9,0.5-2.9c0-0.1,0-0.1,0-0.2L30.6,9.5z M18,36h-1.1l-1.2-1.7
			l1.8-1.4l1.8,1.4L18,36z M13.8,35.7l1.2,1.6l-0.6,1.7l-1.1-2.9L13.8,35.7z M20.9,52.3c1.3,0,2.3,1,2.3,2.3s-1,2.3-2.3,2.3h-2.3
			v-4.6H20.9z M16.3,59.2h4.6c2.6,0,4.6-2.1,4.6-4.6s-2.1-4.6-4.6-4.6h-4.6v-4.6h11.6v17.4H16.3V59.2z M15.9,43l-0.2-0.5l1.4-4.2
			h0.6l1.4,4.2L18.9,43H15.9z M20.4,39.1l-0.6-1.7l1.2-1.6l0.5,0.4L20.4,39.1z M22.4,33.9l-2.9-2.3l2.7-1.3l1.5,0.3L22.4,33.9z
			 M25.5,17.4v-3.5c1.3,0,2.3,1,2.3,2.3s-1,2.3-2.3,2.3h-0.1C25.5,18.2,25.5,17.8,25.5,17.4z M9.3,18.6c-1.3,0-2.3-1-2.3-2.3
			s1-2.3,2.3-2.3v3.5C9.3,17.8,9.3,18.2,9.3,18.6L9.3,18.6z M9.5,11.6H9.3c-0.6,0-1.2,0.1-1.8,0.3l-0.2-0.6C7.1,10.6,7,9.9,7,9.2
			c0-3.8,3.1-6.8,6.8-6.8H21c3.8,0,6.8,3.1,6.8,6.8c0,0.7-0.1,1.5-0.4,2.2L27.3,12c-0.5-0.2-1.1-0.3-1.8-0.3h-0.2
			c-0.5-1.3-1.8-2.3-3.3-2.3h-4.6c-0.6,0-1.2-0.5-1.2-1.2S16.8,7,17.4,7h1.2V4.6h-1.2c-1.6,0-2.9,1.1-3.4,2.5l-0.4,0.1
			C11.5,7.8,9.9,9.5,9.5,11.6z M11.6,17.4v-4.5c0-1.6,1.1-3,2.6-3.4c0.5,1.2,1.8,2.1,3.2,2.1h4.6c0.6,0,1.2,0.5,1.2,1.2v4.6
			c0,3.2-2.6,5.8-5.8,5.8S11.6,20.6,11.6,17.4z M17.4,25.5c0.9,0,1.8-0.2,2.7-0.5l0.7,3.3l-3.3,1.7l-3.3-1.7l0.7-3.3
			C15.6,25.4,16.5,25.5,17.4,25.5z M12.6,30.2l2.7,1.3l-2.9,2.3l-1.3-3.3L12.6,30.2z M2.3,52.3V38c0-3.3,2.4-6.2,5.6-6.8L8.8,31
			l5.1,13.3v5.6H9.3V39.5H7v11.1l-2,2l1.6,1.6l2-2h7.6v4.6H7C4.4,56.9,2.3,54.8,2.3,52.3z M9.3,59.2h4.6V65h16.3V43h-8.8L26,31
			l0.9,0.2c3.2,0.6,5.6,3.5,5.6,6.8v20v3.5v8.1H9.3L9.3,59.2z M58.1,69.7H46.5V65h11.6V69.7z"/>
		<path d="M62.7,44.1c2.6,0,4.6-2.1,4.6-4.6H65c0,1.3-1,2.3-2.3,2.3c-1.3,0-2.3-1-2.3-2.3c0-1.3,1-2.3,2.3-2.3v-2.3
			c-2.6,0-4.6,2.1-4.6,4.6C58.1,42,60.1,44.1,62.7,44.1z"/>
		<path d="M55.7,51.1h12.8v2.3H55.7V51.1z"/>
		<path d="M55.7,46.5h5.8v2.3h-5.8V46.5z"/>
		<path d="M38.3,23.2h2.3v2.3h-2.3V23.2z"/>
		<path d="M43,23.2h2.3v2.3H43V23.2z"/>
		<path d="M47.6,23.2h2.3v2.3h-2.3V23.2z"/>
	</g>
</g>
</svg>
