<?xml version="1.0" encoding="utf-8"?>
<!-- Generator: Adobe Illustrator 24.3.0, SVG Export Plug-In . SVG Version: 6.00 Build 0)  -->
<svg version="1.1" id="Layer_1" xmlns="http://www.w3.org/2000/svg" xmlns:xlink="http://www.w3.org/1999/xlink" x="0px" y="0px"
	 viewBox="0 0 72 72" style="enable-background:new 0 0 72 72;" xml:space="preserve">
<style type="text/css">
	.st0{fill-rule:evenodd;clip-rule:evenodd;fill:#A79BA7;}
	.st1{fill-rule:evenodd;clip-rule:evenodd;fill:#837683;}
	.st2{fill-rule:evenodd;clip-rule:evenodd;fill:#ECEFF1;}
	.st3{fill-rule:evenodd;clip-rule:evenodd;fill:#D1D1D6;}
	.st4{fill-rule:evenodd;clip-rule:evenodd;fill:#D8ECFE;}
	.st5{fill-rule:evenodd;clip-rule:evenodd;fill:#C4E2FF;}
	.st6{fill-rule:evenodd;clip-rule:evenodd;fill:#6CF5C2;}
	.st7{fill-rule:evenodd;clip-rule:evenodd;fill:#00E499;}
	.st8{fill-rule:evenodd;clip-rule:evenodd;fill:#FFE177;}
	.st9{fill-rule:evenodd;clip-rule:evenodd;fill:#FFD064;}
	.st10{fill-rule:evenodd;clip-rule:evenodd;fill:#8AC9FE;}
	.st11{fill-rule:evenodd;clip-rule:evenodd;fill:#60B7FF;}
	.st12{fill-rule:evenodd;clip-rule:evenodd;fill:#F6DCCD;}
	.st13{fill-rule:evenodd;clip-rule:evenodd;fill:#F1CBBC;}
	.st14{fill-rule:evenodd;clip-rule:evenodd;fill:#242222;}
</style>
<g>
	<g>
		<g>
			<path class="st0" d="M27.6,55h16.8v9.6H27.6L27.6,55z"/>
			<path class="st1" d="M43.1,55h1.3v9.6h-1.3V55z"/>
			<path class="st2" d="M17.8,68.7h36.4v-2.8c0-1.5-1.6-2.8-3.5-2.8H21.3c-1.9,0-3.5,1.3-3.5,2.8V68.7z"/>
			<path class="st3" d="M17.8,68.7h36.4v-2.8c0-0.9-0.6-1.7-1.4-2.2c0.2,0.3,0.3,0.7,0.3,1.1v2.8H17.8L17.8,68.7z"/>
			<path class="st2" d="M13.3,20h45.4c2.3,0,4.1,1.9,4.1,4.1v28.3c0,2.3-1.9,4.1-4.1,4.1H13.3c-2.3,0-4.1-1.9-4.1-4.1V24.1
				C9.2,21.8,11.1,20,13.3,20L13.3,20z"/>
			<path class="st3" d="M61,20.7c1.1,0.7,1.8,2,1.8,3.4v28.3c0,2.3-1.9,4.1-4.1,4.1H13.3c-1.4,0-2.7-0.7-3.4-1.8
				c0.7,0.4,1.4,0.7,2.3,0.7h45.4c2.3,0,4.1-1.9,4.1-4.1V23C61.7,22.1,61.4,21.3,61,20.7L61,20.7z"/>
			<path class="st4" d="M13.2,23.4h45.6c0.3,0,0.6,0.3,0.6,0.6v25.7H12.6V24C12.6,23.7,12.9,23.4,13.2,23.4L13.2,23.4z"/>
			<path class="st5" d="M56.5,23.4h2.2c0.3,0,0.6,0.3,0.6,0.6v25.7h-2.2V24C57.1,23.7,56.9,23.4,56.5,23.4z"/>
		</g>
		<g>
			<g>
				<g>
					<path class="st6" d="M13.8,3.3C6.8,3.3,1.2,9,1.2,16c0,7,5.7,12.7,12.7,12.7c1.4,0,2.8-0.2,4-0.7l7.1,1.9c0.2,0,0.3,0,0.4-0.1
						c0.1-0.1,0.2-0.3,0.1-0.4L24,23.6c1.6-2.1,2.5-4.7,2.5-7.6C26.5,9,20.8,3.3,13.8,3.3L13.8,3.3z"/>
				</g>
			</g>
			<path class="st7" d="M13.8,3.3c-0.2,0-0.5,0-0.7,0C19.8,3.7,25.1,9.2,25.1,16c0,2.8-0.9,5.5-2.5,7.6l1.6,5.8c0,0.1,0,0.2,0,0.3
				l0.9,0.3c0.2,0,0.3,0,0.4-0.1c0.1-0.1,0.2-0.3,0.1-0.4L24,23.6c1.6-2.1,2.5-4.7,2.5-7.6C26.5,9,20.8,3.3,13.8,3.3z M13.1,28.6
				c1.2-0.1,2.3-0.3,3.3-0.6l0.8,0.2c-1.1,0.3-2.2,0.5-3.4,0.5C13.6,28.6,13.4,28.6,13.1,28.6z"/>
		</g>
		<g>
			<g>
				<g>
					<path class="st8" d="M58.2,3.4c7,0,12.7,5.7,12.7,12.7c0,7-5.7,12.7-12.7,12.7c-1.4,0-2.8-0.2-4-0.7L47,30
						c-0.2,0-0.3,0-0.4-0.1c-0.1-0.1-0.2-0.3-0.1-0.4l1.6-5.8c-1.6-2.1-2.5-4.7-2.5-7.6C45.5,9.1,51.2,3.4,58.2,3.4z"/>
				</g>
			</g>
			<path class="st9" d="M58.2,3.4c0.2,0,0.5,0,0.7,0c-6.7,0.4-11.9,5.9-11.9,12.7c0,2.8,0.9,5.5,2.5,7.6l-1.6,5.8c0,0.1,0,0.2,0,0.3
				L47,30c-0.2,0-0.3,0-0.4-0.1c-0.1-0.1-0.2-0.3-0.1-0.4l1.6-5.8c-1.6-2.1-2.5-4.7-2.5-7.6C45.5,9.1,51.2,3.4,58.2,3.4L58.2,3.4z
				 M58.9,28.7c-1.2-0.1-2.3-0.3-3.3-0.6l-0.8,0.2c1.1,0.3,2.2,0.5,3.4,0.5C58.4,28.7,58.6,28.7,58.9,28.7z"/>
		</g>
		<g>
			<g>
				<g>
					<path class="st6" d="M58.2,65.7c7,0,12.7-5.7,12.7-12.7s-5.7-12.7-12.7-12.7c-1.4,0-2.8,0.2-4,0.7L47,39.1
						c-0.2,0-0.3,0-0.4,0.1c-0.1,0.1-0.2,0.3-0.1,0.4l1.6,5.8c-1.6,2.1-2.5,4.7-2.5,7.6C45.5,60,51.2,65.7,58.2,65.7L58.2,65.7z"/>
				</g>
			</g>
			<path class="st7" d="M58.2,65.7c0.2,0,0.5,0,0.7,0c-6.7-0.4-11.9-5.9-11.9-12.7c0-2.8,0.9-5.5,2.5-7.6l-1.6-5.8
				c0-0.1,0-0.2,0-0.3L47,39.1c-0.2,0-0.3,0-0.4,0.1c-0.1,0.1-0.2,0.3-0.1,0.4l1.6,5.8c-1.6,2.1-2.5,4.7-2.5,7.6
				C45.5,60,51.2,65.7,58.2,65.7L58.2,65.7z M58.9,40.4c-1.2,0.1-2.3,0.3-3.3,0.6l-0.8-0.2c1.1-0.3,2.2-0.5,3.4-0.5
				C58.4,40.4,58.6,40.4,58.9,40.4z"/>
		</g>
		<g>
			<g>
				<g>
					<path class="st8" d="M13.8,66c-7,0-12.7-5.7-12.7-12.7c0-7,5.7-12.7,12.7-12.7c1.4,0,2.8,0.2,4,0.7l7.1-1.9
						c0.2,0,0.3,0,0.4,0.1s0.2,0.3,0.1,0.4L24,45.7c1.6,2.1,2.5,4.7,2.5,7.6C26.5,60.3,20.8,66,13.8,66L13.8,66z"/>
				</g>
			</g>
			<path class="st9" d="M13.8,66c-0.2,0-0.5,0-0.7,0c6.7-0.4,11.9-5.9,11.9-12.7c0-2.8-0.9-5.5-2.5-7.6l1.6-5.8c0-0.1,0-0.2,0-0.3
				l0.9-0.3c0.2,0,0.3,0,0.4,0.1c0.1,0.1,0.2,0.3,0.1,0.4L24,45.7c1.6,2.1,2.5,4.7,2.5,7.6C26.5,60.3,20.8,66,13.8,66z M13.1,40.6
				c1.2,0.1,2.3,0.3,3.3,0.6l0.8-0.2c-1.1-0.3-2.2-0.5-3.4-0.5C13.6,40.6,13.4,40.6,13.1,40.6z"/>
		</g>
		<g>
			<g>
				<path class="st10" d="M8,58.5h11.7c0.3,0,0.6-0.3,0.5-0.6c-0.6-2.9-3.2-5.2-6.3-5.2c-3.1,0-5.7,2.2-6.3,5.2
					C7.4,58.3,7.7,58.5,8,58.5z"/>
				<path class="st11" d="M18.5,58.5h1.1c0.3,0,0.6-0.3,0.5-0.6c-0.6-2.9-3.2-5.2-6.3-5.2c-0.2,0-0.4,0-0.6,0
					c2.9,0.3,5.2,2.4,5.8,5.1C19.1,58.3,18.8,58.5,18.5,58.5z"/>
				<path class="st12" d="M13.8,46.3c1.8,0,3.3,1.5,3.3,3.3c0,1.8-1.5,3.3-3.3,3.3s-3.3-1.5-3.3-3.3C10.6,47.7,12,46.3,13.8,46.3z"
					/>
				<path class="st13" d="M13.8,46.3c1.8,0,3.3,1.5,3.3,3.3c0,1.8-1.5,3.3-3.3,3.3c-0.2,0-0.3,0-0.5,0c1.6-0.2,2.8-1.6,2.8-3.2
					c0-1.6-1.2-3-2.8-3.2C13.5,46.3,13.7,46.3,13.8,46.3L13.8,46.3z"/>
			</g>
			<g>
				<path class="st10" d="M52.3,58.5H64c0.3,0,0.6-0.3,0.5-0.6c-0.6-2.9-3.2-5.2-6.3-5.2c-3.1,0-5.7,2.2-6.3,5.2
					C51.8,58.3,52,58.5,52.3,58.5L52.3,58.5z"/>
				<path class="st11" d="M62.9,58.5H64c0.3,0,0.6-0.3,0.5-0.6c-0.6-2.9-3.2-5.2-6.3-5.2c-0.2,0-0.4,0-0.6,0
					c2.9,0.3,5.2,2.4,5.8,5.1C63.4,58.3,63.2,58.5,62.9,58.5L62.9,58.5z"/>
				<path class="st12" d="M58.2,46.3c1.8,0,3.3,1.5,3.3,3.3c0,1.8-1.5,3.3-3.3,3.3s-3.3-1.5-3.3-3.3C54.9,47.7,56.4,46.3,58.2,46.3z
					"/>
				<path class="st13" d="M58.2,46.3c1.8,0,3.3,1.5,3.3,3.3c0,1.8-1.5,3.3-3.3,3.3c-0.2,0-0.3,0-0.5,0c1.6-0.2,2.8-1.6,2.8-3.2
					c0-1.6-1.2-3-2.8-3.2C57.9,46.3,58,46.3,58.2,46.3L58.2,46.3z"/>
			</g>
			<g>
				<path class="st10" d="M52.3,22.1H64c0.3,0,0.6-0.3,0.5-0.6c-0.6-2.9-3.2-5.2-6.3-5.2c-3.1,0-5.7,2.2-6.3,5.2
					C51.8,21.8,52,22.1,52.3,22.1L52.3,22.1z"/>
				<path class="st11" d="M62.9,22.1H64c0.3,0,0.6-0.3,0.5-0.6c-0.6-2.9-3.2-5.2-6.3-5.2c-0.2,0-0.4,0-0.6,0
					c2.9,0.3,5.2,2.4,5.8,5.1C63.4,21.8,63.2,22.1,62.9,22.1L62.9,22.1z"/>
				<path class="st12" d="M58.2,9.8c1.8,0,3.3,1.5,3.3,3.3s-1.5,3.3-3.3,3.3s-3.3-1.5-3.3-3.3C54.9,11.3,56.4,9.8,58.2,9.8z"/>
				<path class="st13" d="M58.2,9.8c1.8,0,3.3,1.5,3.3,3.3s-1.5,3.3-3.3,3.3c-0.2,0-0.3,0-0.5,0c1.6-0.2,2.8-1.6,2.8-3.2
					s-1.2-3-2.8-3.2C57.9,9.8,58,9.8,58.2,9.8z"/>
			</g>
			<g>
				<path class="st10" d="M8,22.1h11.7c0.3,0,0.6-0.3,0.5-0.6c-0.6-2.9-3.2-5.2-6.3-5.2c-3.1,0-5.7,2.2-6.3,5.2
					C7.4,21.8,7.7,22.1,8,22.1z"/>
				<path class="st11" d="M18.5,22.1h1.1c0.3,0,0.6-0.3,0.5-0.6c-0.6-2.9-3.2-5.2-6.3-5.2c-0.2,0-0.4,0-0.6,0
					c2.9,0.3,5.2,2.4,5.8,5.1C19.1,21.8,18.8,22.1,18.5,22.1z"/>
				<path class="st12" d="M13.8,9.8c1.8,0,3.3,1.5,3.3,3.3s-1.5,3.3-3.3,3.3s-3.3-1.5-3.3-3.3C10.6,11.3,12,9.8,13.8,9.8z"/>
				<path class="st13" d="M13.8,9.8c1.8,0,3.3,1.5,3.3,3.3s-1.5,3.3-3.3,3.3c-0.2,0-0.3,0-0.5,0c1.6-0.2,2.8-1.6,2.8-3.2
					s-1.2-3-2.8-3.2C13.5,9.8,13.7,9.8,13.8,9.8z"/>
			</g>
		</g>
	</g>
	<path class="st14" d="M58.2,17.5c2.2,0,4.1,1.4,4.9,3.4h-9.8C54,18.9,56,17.5,58.2,17.5L58.2,17.5z M58.2,11.1
		c1.1,0,2.1,0.9,2.1,2.1s-0.9,2.1-2.1,2.1s-2.1-0.9-2.1-2.1S57,11.1,58.2,11.1z M51.8,23.2h12.7c0.3,0,0.6-0.1,0.9-0.4
		c0.2-0.2,0.3-0.6,0.3-0.9c-0.3-2.6-1.9-4.8-4.1-5.9c0.6-0.8,1-1.8,1-2.8c0-2.4-2-4.4-4.4-4.4c-2.4,0-4.4,2-4.4,4.4
		c0,1.1,0.4,2.1,1,2.8c-2.2,1.1-3.9,3.3-4.1,5.9c0,0.3,0.1,0.7,0.3,0.9C51.2,23.1,51.5,23.2,51.8,23.2z M53.3,57.3
		c0.8-2,2.7-3.4,4.9-3.4c2.2,0,4.1,1.4,4.9,3.4H53.3z M58.2,47.5c1.1,0,2.1,0.9,2.1,2.1c0,1.1-0.9,2.1-2.1,2.1
		c-1.1,0-2.1-0.9-2.1-2.1C56.1,48.4,57,47.5,58.2,47.5L58.2,47.5z M61.5,52.4c0.6-0.8,1-1.8,1-2.8c0-2.4-2-4.4-4.4-4.4
		c-2.4,0-4.4,2-4.4,4.4c0,1.1,0.4,2.1,1,2.8c-2.2,1.1-3.9,3.3-4.1,5.9c0,0.3,0.1,0.7,0.3,0.9c0.2,0.2,0.5,0.4,0.9,0.4h12.7
		c0.3,0,0.6-0.1,0.9-0.4c0.2-0.2,0.3-0.6,0.3-0.9C65.4,55.7,63.7,53.5,61.5,52.4L61.5,52.4z M9,20.9c0.7-2,2.7-3.4,4.9-3.4
		c2.2,0,4.1,1.4,4.9,3.4H9z M13.8,11.1c1.1,0,2.1,0.9,2.1,2.1s-0.9,2.1-2.1,2.1s-2.1-0.9-2.1-2.1S12.7,11.1,13.8,11.1z M21,22.8
		c0.2-0.2,0.3-0.6,0.3-0.9c-0.3-2.6-1.9-4.8-4.2-5.9c0.7-0.8,1-1.8,1-2.8c0-2.4-2-4.4-4.4-4.4c-2.4,0-4.4,2-4.4,4.4
		c0,1.1,0.4,2.1,1,2.8c-2.2,1.1-3.9,3.3-4.2,5.9c0,0.3,0.1,0.7,0.3,0.9c0.2,0.2,0.5,0.4,0.9,0.4h12.7C20.5,23.2,20.8,23.1,21,22.8z
		 M9,57.3c0.7-2,2.7-3.4,4.9-3.4c2.2,0,4.1,1.4,4.9,3.4H9z M13.8,47.5c1.1,0,2.1,0.9,2.1,2.1c0,1.1-0.9,2.1-2.1,2.1
		s-2.1-0.9-2.1-2.1C11.8,48.4,12.7,47.5,13.8,47.5z M17.2,52.4c0.7-0.8,1-1.8,1-2.8c0-2.4-2-4.4-4.4-4.4c-2.4,0-4.4,2-4.4,4.4
		c0,1.1,0.4,2.1,1,2.8c-2.2,1.1-3.9,3.3-4.2,5.9c0,0.3,0.1,0.7,0.3,0.9c0.2,0.2,0.5,0.4,0.9,0.4h12.7c0.3,0,0.6-0.1,0.9-0.4
		c0.2-0.2,0.3-0.6,0.3-0.9C21,55.7,19.4,53.5,17.2,52.4z M58.2,64.6c6.3,0,11.5-5.2,11.5-11.5s-5.2-11.5-11.5-11.5
		c-1.3,0-2.5,0.2-3.7,0.6c-0.2,0.1-0.5,0.1-0.7,0l-5.9-1.6l1.2,4.6c0.1,0.3,0,0.7-0.2,1c-1.5,2-2.3,4.4-2.3,6.9
		C46.7,59.5,51.8,64.6,58.2,64.6L58.2,64.6z M53,67.5H19V66c1.1-0.4,2.2-1,3.1-1.7h27.9c0.9,0.7,2,1.3,3.1,1.7V67.5z M2.3,53.1
		c0,6.3,5.2,11.5,11.5,11.5s11.5-5.2,11.5-11.5c0-2.5-0.8-4.9-2.3-6.9c-0.2-0.3-0.3-0.7-0.2-1l1.2-4.6l-5.9,1.6
		c-0.2,0.1-0.5,0.1-0.7,0c-1.2-0.4-2.4-0.6-3.7-0.6C7.5,41.6,2.3,46.8,2.3,53.1z M10.4,29.4c0.4,0.1,0.7,0.2,1.1,0.2v9.9
		c-0.4,0.1-0.8,0.1-1.1,0.2V29.4z M2.3,16c0,6.3,5.2,11.5,11.5,11.5c1.3,0,2.5-0.2,3.7-0.6c0.1,0,0.2-0.1,0.4-0.1c0.1,0,0.2,0,0.3,0
		l5.9,1.6l-1.2-4.6c-0.1-0.3,0-0.7,0.2-1c1.5-2,2.3-4.4,2.3-6.9c0-6.3-5.2-11.5-11.5-11.5C7.5,4.5,2.3,9.6,2.3,16z M45.3,21.1
		c0.2,0.4,0.3,0.8,0.5,1.1H26.2c0.2-0.4,0.4-0.7,0.5-1.1H45.3z M58.2,4.5c-6.3,0-11.5,5.2-11.5,11.5c0,2.5,0.8,4.9,2.3,6.9
		c0.2,0.3,0.3,0.7,0.2,1l-1.2,4.6l5.9-1.6c0.2-0.1,0.5-0.1,0.7,0c1.2,0.4,2.4,0.6,3.7,0.6c6.3,0,11.5-5.2,11.5-11.5
		C69.7,9.6,64.5,4.5,58.2,4.5L58.2,4.5z M45.6,58.9c0.5,1.1,1.2,2.1,1.9,3.1h-1.9V58.9z M28.7,57.7h14.5v4.2H28.7V57.7z M26.4,58.9
		v3.1h-1.9C25.3,61,25.9,60,26.4,58.9z M44.5,55.4h-17c0.1-0.7,0.2-1.5,0.2-2.3c0-0.8-0.1-1.6-0.2-2.4h17.1
		c-0.1,0.8-0.2,1.6-0.2,2.4C44.3,53.9,44.4,54.6,44.5,55.4L44.5,55.4z M45.1,39.3c-0.1-0.4,0-0.8,0.3-1.1c0.3-0.3,0.7-0.4,1.1-0.3
		l7.5,2c1.3-0.4,2.7-0.6,4.1-0.6h0v-9.5c0,0,0,0,0,0c-1.4,0-2.8-0.2-4.1-0.6l-7.5,2c-0.1,0-0.2,0-0.3,0c-0.3,0-0.6-0.1-0.8-0.3
		c-0.3-0.3-0.4-0.7-0.3-1.1l1.4-5.2H25.4l1.4,5.2c0.1,0.4,0,0.8-0.3,1.1c-0.2,0.2-0.5,0.3-0.8,0.3c-0.1,0-0.2,0-0.3,0l-7.5-2
		c-1.3,0.4-2.7,0.6-4.1,0.6c0,0,0,0,0,0v9.5h0c1.4,0,2.8,0.2,4.1,0.6l7.5-2c0.4-0.1,0.8,0,1.1,0.3c0.3,0.3,0.4,0.7,0.3,1.1l-1.6,6
		c0.7,1,1.2,2,1.6,3.1h18.3c0.4-1.1,0.9-2.2,1.6-3.1L45.1,39.3z M61.6,39.7c-0.4-0.1-0.7-0.2-1.1-0.2v-9.9c0.4-0.1,0.8-0.1,1.1-0.2
		V39.7z M64,40.6v-12c4.7-2.2,8-7,8-12.6c0-7.6-6.2-13.8-13.8-13.8c-7.6,0-13.8,6.2-13.8,13.8c0,1,0.1,1.9,0.3,2.8H27.4
		c0.2-0.9,0.3-1.9,0.3-2.8c0-7.6-6.2-13.8-13.8-13.8C6.2,2.1,0,8.3,0,16c0,5.6,3.3,10.4,8,12.6v12c-4.7,2.2-8,7-8,12.6
		C0,60.8,6.2,67,13.8,67c1,0,1.9-0.1,2.8-0.3v2c0,0.6,0.5,1.2,1.2,1.2h36.4c0.6,0,1.2-0.5,1.2-1.2v-2c0.9,0.2,1.8,0.3,2.8,0.3
		C65.8,67,72,60.8,72,53.1C72,47.6,68.7,42.8,64,40.6L64,40.6z"/>
</g>
</svg>
