<?xml version="1.0" encoding="utf-8"?>
<!-- Generator: Adobe Illustrator 24.3.0, SVG Export Plug-In . SVG Version: 6.00 Build 0)  -->
<svg version="1.1" id="Layer_1" xmlns="http://www.w3.org/2000/svg" xmlns:xlink="http://www.w3.org/1999/xlink" x="0px" y="0px"
	 viewBox="0 0 72 72" style="enable-background:new 0 0 72 72;" xml:space="preserve">
<style type="text/css">
	.st0{fill:#B9CFDF;}
	.st1{fill:#90ABBD;}
	.st2{fill:#99E7FA;}
	.st3{fill:#4DD4F7;}
	.st4{fill:#56788B;}
	.st5{fill:#415E6F;}
	.st6{fill:#F9D11F;}
	.st7{fill:#FFA402;}
	.st8{fill:#FF4656;}
</style>
<g>
	<g>
		<g>
			<g>
				<path className="st0" d="M44.7,66.4H27.3l1.2-3.7l1.6-4.8l5.9-2.8l1.8,0.9l4.1,2L44.7,66.4z"/>
				<path className="st1" d="M44.7,66.4H27.3l1.2-3.7h9.7c0.9,0,1.5-0.9,1.2-1.7l-1.7-5l4.1,2L44.7,66.4z"/>
			</g>
			<path className="st2" d="M70.9,7.8v48c0,1.2-1,2.2-2.2,2.2H3.2c-1.2,0-2.2-1-2.2-2.2v-48c0-1.2,1-2.2,2.2-2.2h65.5
				C70,5.6,70.9,6.6,70.9,7.8z"/>
			<path className="st3" d="M70.9,7.8v48c0,1.2-1,2.2-2.2,2.2H3.2c-1.2,0-2.2-1-2.2-2.2v-5.4h64.3c1.2,0,2.2-1,2.2-2.2V7.8
				c0-1.2-1-2.2-2.2-2.2h3.4C70,5.6,70.9,6.6,70.9,7.8L70.9,7.8z"/>
			<path className="st4" d="M70.9,53.7v2.1c0,1.2-1,2.2-2.2,2.2H3.2c-1.2,0-2.2-1-2.2-2.2v-2.1H70.9z"/>
			<path className="st4" d="M70.9,7.8v2.1H1.1V7.8c0-1.2,1-2.2,2.2-2.2h65.5C70,5.6,70.9,6.6,70.9,7.8z"/>
			<g>
				<path className="st5" d="M70.9,7.8v2.1h-3.4V7.8c0-1.2-1-2.2-2.2-2.2h3.4C70,5.6,70.9,6.6,70.9,7.8z"/>
				<path className="st5" d="M67.6,53.7h3.4v2.1c0,1.2-1,2.2-2.2,2.2H3.2c-1.2,0-2.2-1-2.2-2.2h64.3C66.6,55.8,67.5,54.9,67.6,53.7z"/>
			</g>
		</g>
		<g>
			<path className="st6" d="M6.9,19.6h24.4V44H6.9V19.6z"/>
			<path className="st7" d="M31.3,19.6V44H6.9v-3.2h18c1.6,0,2.8-1.3,2.8-2.8V19.6L31.3,19.6z"/>
			<path className="st8" d="M23,30.8L19.1,29l-3.9,1.9V19.6H23V30.8z"/>
		</g>
		<g>
			<circle className="st8" cx="39.3" cy="22.6" r="2.1"/>
			<circle className="st8" cx="39.3" cy="31.8" r="2.1"/>
			<circle className="st8" cx="39.3" cy="41" r="2.1"/>
		</g>
	</g>
	<g>
		<path d="M68.8,4.6H3.2C1.4,4.6,0,6,0,7.8v48C0,57.5,1.4,59,3.2,59h25.5l-2.1,6.3h-3.8c-0.6,0-1.1,0.5-1.1,1.1
			c0,0.6,0.5,1.1,1.1,1.1h26.4c0.6,0,1.1-0.5,1.1-1.1c0-0.6-0.5-1.1-1.1-1.1h-3.8L43.3,59h25.5c1.8,0,3.2-1.4,3.2-3.2V26.9
			c0-0.6-0.5-1.1-1.1-1.1s-1.1,0.5-1.1,1.1v25.8H59.2c-0.6,0-1.1,0.5-1.1,1.1c0,0.6,0.5,1.1,1.1,1.1h10.7v1c0,0.6-0.5,1.1-1.1,1.1
			H3.2c-0.6,0-1.1-0.5-1.1-1.1v-1h52.2c0.6,0,1.1-0.5,1.1-1.1c0-0.6-0.5-1.1-1.1-1.1H2.1V10.9h10.5c0.6,0,1.1-0.5,1.1-1.1
			c0-0.6-0.5-1.1-1.1-1.1H2.1v-1c0-0.6,0.5-1.1,1.1-1.1h65.5c0.6,0,1.1,0.5,1.1,1.1v1H17.5c-0.6,0-1.1,0.5-1.1,1.1
			c0,0.6,0.5,1.1,1.1,1.1h52.4v11c0,0.6,0.5,1.1,1.1,1.1s1.1-0.5,1.1-1.1V7.8C72,6,70.6,4.6,68.8,4.6z M41.1,59l2.1,6.3H28.8
			l2.1-6.3H41.1z"/>
		<path d="M6.9,29.9c-0.6,0-1.1,0.5-1.1,1.1v13c0,0.6,0.5,1.1,1.1,1.1h24.4c0.6,0,1.1-0.5,1.1-1.1V19.5c0-0.6-0.5-1.1-1.1-1.1H6.9
			c-0.6,0-1.1,0.5-1.1,1.1v6.5c0,0.6,0.5,1.1,1.1,1.1S8,26.7,8,26.1v-5.5h6.2v10.2c0,0.4,0.2,0.7,0.5,0.9c0.3,0.2,0.7,0.2,1,0.1
			l3.4-1.7l3.4,1.7c0.1,0.1,0.3,0.1,0.5,0.1c0.2,0,0.4-0.1,0.6-0.2c0.3-0.2,0.5-0.5,0.5-0.9V20.6h6.2V43H8V31
			C8,30.4,7.5,29.9,6.9,29.9L6.9,29.9z M22,29.2L19.6,28c-0.1-0.1-0.3-0.1-0.5-0.1s-0.3,0-0.5,0.1l-2.4,1.1v-8.6H22V29.2z"/>
		<path d="M22.4,38.2c0.6,0,1.1-0.5,1.1-1.1c0-0.6-0.5-1.1-1.1-1.1h-6.6c-0.6,0-1.1,0.5-1.1,1.1c0,0.6,0.5,1.1,1.1,1.1H22.4z"/>
		<path d="M39.3,19.4c-1.7,0-3.2,1.4-3.2,3.2c0,1.7,1.4,3.2,3.2,3.2s3.2-1.4,3.2-3.2C42.5,20.8,41.1,19.4,39.3,19.4z M39.3,23.6
			c-0.6,0-1.1-0.5-1.1-1.1c0-0.6,0.5-1.1,1.1-1.1s1.1,0.5,1.1,1.1C40.4,23.2,39.9,23.6,39.3,23.6z"/>
		<path d="M65.3,21.4h-19c-0.6,0-1.1,0.5-1.1,1.1s0.5,1.1,1.1,1.1h19c0.6,0,1.1-0.5,1.1-1.1S65.8,21.4,65.3,21.4L65.3,21.4z"/>
		<path d="M39.3,28.6c-1.7,0-3.2,1.4-3.2,3.2c0,1.7,1.4,3.2,3.2,3.2s3.2-1.4,3.2-3.2C42.5,30,41.1,28.6,39.3,28.6z M39.3,32.8
			c-0.6,0-1.1-0.5-1.1-1.1c0-0.6,0.5-1.1,1.1-1.1s1.1,0.5,1.1,1.1C40.4,32.4,39.9,32.8,39.3,32.8z"/>
		<path d="M65.3,30.6h-19c-0.6,0-1.1,0.5-1.1,1.1c0,0.6,0.5,1.1,1.1,1.1h19c0.6,0,1.1-0.5,1.1-1.1C66.3,31,65.8,30.6,65.3,30.6
			L65.3,30.6z"/>
		<path d="M39.3,37.8c-1.7,0-3.2,1.4-3.2,3.2s1.4,3.2,3.2,3.2s3.2-1.4,3.2-3.2S41.1,37.8,39.3,37.8z M39.3,42
			c-0.6,0-1.1-0.5-1.1-1.1s0.5-1.1,1.1-1.1s1.1,0.5,1.1,1.1S39.9,42,39.3,42z"/>
		<path d="M65.3,39.8h-19c-0.6,0-1.1,0.5-1.1,1.1s0.5,1.1,1.1,1.1h19c0.6,0,1.1-0.5,1.1-1.1S65.8,39.8,65.3,39.8L65.3,39.8z"/>
	</g>
</g>
</svg>
