<?xml version="1.0" encoding="utf-8"?>
<!-- Generator: Adobe Illustrator 24.3.0, SVG Export Plug-In . SVG Version: 6.00 Build 0)  -->
<svg version="1.1" id="Layer_1" xmlns="http://www.w3.org/2000/svg" xmlns:xlink="http://www.w3.org/1999/xlink" x="0px" y="0px"
	 viewBox="0 0 72 72" style="enable-background:new 0 0 72 72;" xml:space="preserve">
<style type="text/css">
	.st0{fill-rule:evenodd;clip-rule:evenodd;fill:#FFDA2D;}
	.st1{fill-rule:evenodd;clip-rule:evenodd;fill:#FFC700;}
	.st2{fill-rule:evenodd;clip-rule:evenodd;fill:#64B5F6;}
	.st3{fill-rule:evenodd;clip-rule:evenodd;fill:#42A5F5;}
	.st4{fill-rule:evenodd;clip-rule:evenodd;fill:#FC685B;}
	.st5{fill-rule:evenodd;clip-rule:evenodd;fill:#F35244;}
	.st6{fill-rule:evenodd;clip-rule:evenodd;fill:#8D9CA8;}
	.st7{fill-rule:evenodd;clip-rule:evenodd;fill:#7A8C98;}
	.st8{fill-rule:evenodd;clip-rule:evenodd;fill:#EFF4F7;}
	.st9{fill-rule:evenodd;clip-rule:evenodd;fill:#465759;}
	.st10{fill-rule:evenodd;clip-rule:evenodd;fill:#3A484A;}
	.st11{fill-rule:evenodd;clip-rule:evenodd;fill:#E2E3E3;}
	.st12{fill-rule:evenodd;clip-rule:evenodd;}
</style>
<g>
	<g>
		<g>
			<path class="st0" d="M11.8,10.9h57.1c1.1,0,2,0.9,2,2v11.1c0,0.3-0.3,0.6-0.6,0.6H70c-2.5,0-4.5,2-4.5,4.5s2,4.5,4.5,4.5h0.3
				c0.3,0,0.6,0.3,0.6,0.6v11.1c0,1.1-0.9,2-2,2H11.8c-1.1,0-2-0.9-2-2V34.1c0-0.3,0.3-0.6,0.6-0.6h0.3c2.5,0,4.5-2,4.5-4.5
				s-2-4.5-4.5-4.5h-0.3c-0.3,0-0.6-0.3-0.6-0.6V12.9C9.8,11.8,10.7,10.9,11.8,10.9z"/>
			<path class="st1" d="M68.9,47.2H11.8c-1,0-1.8-0.8-2-1.7c0.1,0,0.2,0,0.3,0h57.1c1.1,0,2-0.9,2-2v-10c0.2,0,0.5,0.1,0.8,0.1h0.3
				c0.3,0,0.6,0.3,0.6,0.6v11.1C70.9,46.3,70,47.2,68.9,47.2z M13,25.1c-0.7-0.4-1.5-0.6-2.3-0.6h-0.3c-0.3,0-0.6-0.3-0.6-0.6v-1.1
				C11.2,23.1,12.3,24,13,25.1z M69.2,10.9c1,0.1,1.7,1,1.7,2v11.1c0,0.3-0.3,0.6-0.6,0.6H70c-2.5,0-4.5,2-4.5,4.5
				c0,0.8,0.2,1.6,0.6,2.2c-1.3-0.8-2.3-2.3-2.3-3.9c0-2.5,2-4.5,4.5-4.5h0.3c0.3,0,0.6-0.3,0.6-0.6V11.2
				C69.2,11.1,69.2,11,69.2,10.9L69.2,10.9z"/>
		</g>
		<g>
			<path class="st2" d="M3.1,3.5h57.1c1.1,0,2,0.9,2,2v11.1c0,0.3-0.3,0.6-0.6,0.6h-0.3c-2.5,0-4.5,2-4.5,4.5s2,4.5,4.5,4.5h0.3
				c0.3,0,0.6,0.3,0.6,0.6v11.1c0,1.1-0.9,2-2,2H3.1c-1.1,0-2-0.9-2-2V26.7c0-0.3,0.3-0.6,0.6-0.6H2c2.5,0,4.5-2,4.5-4.5
				s-2-4.5-4.5-4.5H1.7c-0.3,0-0.6-0.3-0.6-0.6V5.5C1.1,4.4,2,3.5,3.1,3.5z"/>
			<path class="st3" d="M3.1,3.5h57.1c1,0,1.8,0.8,2,1.7c-0.1,0-0.2,0-0.3,0H4.8c-1.1,0-2,0.9-2,2v10c-0.2,0-0.5-0.1-0.8-0.1H1.7
				c-0.3,0-0.6-0.3-0.6-0.6V5.5C1.1,4.4,2,3.5,3.1,3.5z M59,25.5c0.7,0.4,1.5,0.6,2.3,0.6h0.3c0.3,0,0.6,0.3,0.6,0.6v1.1
				C60.9,27.6,59.7,26.7,59,25.5L59,25.5z M2.8,39.7c-1-0.1-1.7-1-1.7-2V26.7c0-0.3,0.3-0.6,0.6-0.6H2c2.5,0,4.5-2,4.5-4.5
				c0-0.8-0.2-1.6-0.6-2.2c1.3,0.8,2.3,2.3,2.3,3.9c0,2.5-2,4.5-4.5,4.5H3.4c-0.3,0-0.6,0.3-0.6,0.6v11.1
				C2.8,39.6,2.8,39.7,2.8,39.7z"/>
			<path class="st3" d="M11.6,32c0.6,0,1.1,0.5,1.1,1.1c0,0.6-0.5,1.1-1.1,1.1H6.1c-0.6,0-1.1-0.5-1.1-1.1C5,32.5,5.5,32,6.1,32
				H11.6z M28.2,23.7c-0.6,0-1.1-0.5-1.1-1.1c0-0.6,0.5-1.1,1.1-1.1h22.4c0.6,0,1.1,0.5,1.1,1.1c0,0.6-0.5,1.1-1.1,1.1H28.2z
				 M28.2,34.9c-0.6,0-1.1-0.5-1.1-1.1c0-0.6,0.5-1.1,1.1-1.1h22.4c0.6,0,1.1,0.5,1.1,1.1c0,0.6-0.5,1.1-1.1,1.1H28.2z M28.2,29.3
				c-0.6,0-1.1-0.5-1.1-1.1c0-0.6,0.5-1.1,1.1-1.1h22.4c0.6,0,1.1,0.5,1.1,1.1c0,0.6-0.5,1.1-1.1,1.1H28.2z M11.6,9.8
				c0.6,0,1.1,0.5,1.1,1.1S12.2,12,11.6,12H6.1C5.5,12,5,11.5,5,10.9s0.5-1.1,1.1-1.1H11.6z M11.6,27.8c0.6,0,1.1,0.5,1.1,1.1
				c0,0.6-0.5,1.1-1.1,1.1H6.1c-0.6,0-1.1-0.5-1.1-1.1c0-0.6,0.5-1.1,1.1-1.1H11.6z"/>
			<path class="st4" d="M53.6,13.1V8.2c0-0.2-0.1-0.3-0.3-0.3H27.1c-0.2,0-0.3,0.1-0.3,0.3v4.9c0,0.2,0.1,0.3,0.3,0.3h26.2
				C53.5,13.4,53.6,13.3,53.6,13.1z"/>
			<path class="st5" d="M53.6,13.1V8.2c0-0.2-0.1-0.3-0.3-0.3h-1.1v3.7c0,0.2-0.1,0.3-0.3,0.3H26.8v1.1c0,0.2,0.1,0.3,0.3,0.3h26.2
				C53.5,13.4,53.6,13.3,53.6,13.1z"/>
		</g>
		<g>
			<path class="st6" d="M45.7,32h6.1V35c2,0.4,3.9,1.2,5.6,2.3l2.2-2.2l4.3,4.3l-2.2,2.2c1.1,1.7,1.9,3.5,2.3,5.6h3.1v6.1H64
				c-0.4,2-1.2,3.9-2.3,5.6l2.2,2.2l-4.3,4.3l-2.2-2.2c-1.7,1.1-3.5,1.9-5.6,2.3v3.1h-6.1v-3.1c-2-0.4-3.9-1.2-5.6-2.3L38,65.3
				L33.7,61l2.2-2.2c-1.1-1.7-1.9-3.5-2.3-5.6h-3.1v-6.1h3.1c0.4-2,1.2-3.9,2.3-5.6l-2.2-2.2l4.3-4.3l2.2,2.2
				c1.7-1.1,3.5-1.9,5.6-2.3L45.7,32L45.7,32z"/>
			<path class="st7" d="M49.8,35c2.5,0.5,4.8,1.6,6.7,3.2l0.9-0.9c-1.7-1.1-3.5-1.9-5.6-2.3V32h-2.1V35z M59.6,41.6
				c1.1,1.7,1.9,3.5,2.3,5.6H64c-0.4-2-1.2-3.9-2.3-5.6l2.2-2.2l-4.3-4.3l-1.1,1.1l3.3,3.2L59.6,41.6z M61.9,53.3
				c-0.4,2-1.2,3.9-2.3,5.6l2.2,2.2l-3.3,3.3l1,1l4.3-4.3l-2.2-2.2c1.1-1.7,1.9-3.5,2.3-5.6H61.9z M56.5,62.3
				c-1.9,1.6-4.2,2.7-6.7,3.2v3.1h2.1v-3.1c2-0.4,3.9-1.2,5.6-2.3L56.5,62.3z M65,53.3h2.1v-6.1H65V53.3z"/>
			<circle class="st8" cx="48.8" cy="50.2" r="10.3"/>
			<path class="st9" d="M51,60.3c-0.7,0.2-1.5,0.3-2.3,0.3c-0.8,0-1.5-0.1-2.3-0.3v-4.1c-2.4-0.9-4-3.4-4-5.9c0-2.5,1.2-4.3,3-5.4
				v5.2l3.3,1.9l3.3-1.9v-5.2c1.8,1.1,3,2.9,3,5.4c0,2.5-1.7,5-4,5.9L51,60.3L51,60.3z"/>
			<path class="st10" d="M51,60.3c-0.5,0.1-0.9,0.2-1.4,0.2v-4.4c2.4-0.9,4-3.4,4-5.9c0-1.8-0.6-3.2-1.6-4.2v-1.1
				c1.8,1.1,3,2.9,3,5.4c0,2.5-1.7,5-4,5.9V60.3z M48.8,52l-3.3-1.9v-5.2c-0.5,0.3-1,0.7-1.4,1.1v4.1l4,2.3L48.8,52z"/>
			<path class="st11" d="M48.8,40c2.5,0,4.9,0.9,6.7,2.5c-1.4-0.8-3.1-1.2-4.9-1.2c-5.7,0-10.3,4.6-10.3,10.3c0,3.1,1.4,5.9,3.6,7.8
				c-3.2-1.7-5.4-5.1-5.4-9.1C38.5,44.6,43.1,40,48.8,40L48.8,40z"/>
		</g>
	</g>
	<path class="st12" d="M52.2,58.7v-1.9c2.4-1.3,4-3.9,4-6.6c0-2.7-1.3-4.9-3.5-6.3c-0.3-0.2-0.8-0.2-1.1,0c-0.4,0.2-0.6,0.6-0.6,1
		v4.6l-2.2,1.3l-2.2-1.3v-4.6c0-0.4-0.2-0.8-0.6-1c-0.4-0.2-0.8-0.2-1.1,0c-2.3,1.4-3.5,3.7-3.5,6.3c0,2.7,1.7,5.4,4,6.6v1.9
		c-3.4-1.4-5.7-4.6-5.7-8.5c0-5,4.1-9.2,9.1-9.2s9.1,4.1,9.1,9.2C57.9,54.1,55.5,57.4,52.2,58.7L52.2,58.7z M47.6,59.3
		c0.4,0,0.8,0.1,1.1,0.1s0.8,0,1.1-0.1v-3.2c0-0.5,0.3-0.9,0.7-1.1c1.9-0.7,3.3-2.8,3.3-4.8c0-1.1-0.3-2-0.8-2.8v2.6
		c0,0.4-0.2,0.8-0.6,1L49.3,53c-0.4,0.2-0.8,0.2-1.1,0l-3.3-1.9c-0.3-0.2-0.6-0.6-0.6-1v-2.6c-0.5,0.8-0.8,1.7-0.8,2.8
		c0,2,1.4,4.1,3.3,4.8c0.4,0.2,0.7,0.6,0.7,1.1L47.6,59.3L47.6,59.3z M48.8,38.8c-6.3,0-11.4,5.1-11.4,11.4
		c0,6.3,5.1,11.4,11.4,11.4s11.4-5.1,11.4-11.4C60.2,43.9,55.1,38.8,48.8,38.8z M52.5,27.2c0,0.6-0.5,1.1-1.1,1.1H29
		c-0.6,0-1.1-0.5-1.1-1.1s0.5-1.1,1.1-1.1h22.4C52,26.1,52.5,26.6,52.5,27.2z M52.5,21.6c0,0.6-0.5,1.1-1.1,1.1H29
		c-0.6,0-1.1-0.5-1.1-1.1s0.5-1.1,1.1-1.1h22.4C52,20.5,52.5,21,52.5,21.6z M17.1,33.1v-2.9c0-0.6,0.5-1.1,1.1-1.1s1.1,0.5,1.1,1.1
		v2.9c0,0.6-0.5,1.1-1.1,1.1S17.1,33.7,17.1,33.1z M17.1,26.4v-2.9c0-0.6,0.5-1.1,1.1-1.1s1.1,0.5,1.1,1.1v2.9
		c0,0.6-0.5,1.1-1.1,1.1S17.1,27,17.1,26.4z M17.1,19.7v-2.9c0-0.6,0.5-1.1,1.1-1.1s1.1,0.5,1.1,1.1v2.9c0,0.6-0.5,1.1-1.1,1.1
		S17.1,20.4,17.1,19.7z M17.1,13.1v-2.9c0-0.6,0.5-1.1,1.1-1.1s1.1,0.5,1.1,1.1v2.9c0,0.6-0.5,1.1-1.1,1.1S17.1,13.7,17.1,13.1z
		 M13.6,28c0,0.6-0.5,1.1-1.1,1.1H7c-0.6,0-1.1-0.5-1.1-1.1s0.5-1.1,1.1-1.1h5.5C13,26.8,13.6,27.4,13.6,28z M13.6,32.2
		c0,0.6-0.5,1.1-1.1,1.1H7c-0.6,0-1.1-0.5-1.1-1.1c0-0.6,0.5-1.1,1.1-1.1h5.5C13,31.1,13.6,31.6,13.6,32.2z M28,9.1h24.5v3.2H28
		L28,9.1z M27.1,14.5h26.2c0.8,0,1.4-0.6,1.4-1.4V8.2c0-0.8-0.6-1.4-1.4-1.4H27.1c-0.8,0-1.4,0.6-1.4,1.4v4.9
		C25.7,13.9,26.3,14.5,27.1,14.5z M12.4,11.1H7c-0.6,0-1.1-0.5-1.1-1.1c0-0.6,0.5-1.1,1.1-1.1h5.5c0.6,0,1.1,0.5,1.1,1.1
		C13.6,10.6,13,11.1,12.4,11.1z M69.7,34.7c-3-0.1-5.4-2.6-5.4-5.7s2.4-5.5,5.4-5.7V12.9c0-0.5-0.4-0.8-0.9-0.8h-5.5v4.5
		c0,0.9-0.8,1.7-1.7,1.7h-0.3c-1.9,0-3.4,1.5-3.4,3.4c0,1.9,1.5,3.4,3.4,3.4h0.3c0.9,0,1.7,0.8,1.7,1.7v10.6l1.3,1.3
		c0.4,0.4,0.4,1.2,0,1.6l-1.5,1.5c0.8,1.3,1.4,2.8,1.8,4.3h4c0.5,0,0.9-0.4,0.9-0.8L69.7,34.7z M65.9,52.2v-3.8H64
		c-0.5,0-1-0.4-1.1-0.9c-0.4-1.8-1.1-3.6-2.1-5.1c-0.3-0.4-0.2-1,0.1-1.4l1.4-1.4l-2.7-2.7l-1.4,1.4c-0.4,0.4-1,0.4-1.4,0.1
		c-1.6-1-3.3-1.8-5.1-2.1c-0.5-0.1-0.9-0.6-0.9-1.1v-1.9h-3.8V35c0,0.5-0.4,1-0.9,1.1c-1.9,0.4-3.6,1.1-5.1,2.1
		c-0.5,0.3-1,0.2-1.4-0.1L38,36.7l-2.7,2.7l1.4,1.4c0.4,0.4,0.4,1,0.1,1.4c-1,1.6-1.8,3.3-2.1,5.1c-0.1,0.5-0.6,0.9-1.1,0.9h-1.9
		v3.8h1.9c0.5,0,1,0.4,1.1,0.9c0.4,1.8,1.1,3.6,2.1,5.1c0.3,0.4,0.2,1-0.1,1.4L35.3,61l2.7,2.7l1.4-1.4c0.4-0.4,1-0.4,1.4-0.1
		c1.6,1,3.3,1.8,5.1,2.1c0.5,0.1,0.9,0.6,0.9,1.1v1.9h3.8v-1.9c0-0.5,0.4-1,0.9-1.1c1.8-0.4,3.6-1.1,5.1-2.1c0.5-0.3,1-0.2,1.4,0.1
		l1.4,1.4l2.7-2.7l-1.4-1.4c-0.4-0.4-0.4-1-0.1-1.4c1-1.6,1.8-3.3,2.1-5.1c0.1-0.5,0.6-0.9,1.1-0.9L65.9,52.2z M11.8,46.1
		c-0.5,0-0.8-0.4-0.8-0.8v-4.3h22.6l0.9,0.9c-0.8,1.3-1.4,2.8-1.8,4.3H11.8z M2.3,37.8c0,0.5,0.4,0.8,0.9,0.8h14v-1.8
		c0-0.6,0.5-1.1,1.1-1.1s1.1,0.5,1.1,1.1v1.8h13.5l4.3-4.3c0.4-0.4,1.2-0.4,1.6,0l1.5,1.5c1.3-0.8,2.8-1.4,4.3-1.8v-0.2H29
		c-0.6,0-1.1-0.5-1.1-1.1c0-0.6,0.5-1.1,1.1-1.1h15.6c0.1-0.5,0.6-0.8,1.1-0.8h6.1c0.6,0,1.1,0.5,1.1,1.1v2.2c1.5,0.4,2.9,1,4.3,1.8
		l1.5-1.5c0.2-0.2,0.5-0.3,0.8-0.3c0.3,0,0.6,0.1,0.8,0.3l0.7,0.7v-7.8c-3-0.1-5.4-2.6-5.4-5.7c0-3,2.4-5.5,5.4-5.7V5.5
		c0-0.5-0.4-0.8-0.9-0.8H19.4v1.8c0,0.6-0.5,1.1-1.1,1.1S17.1,7,17.1,6.4V4.6h-14C2.6,4.6,2.3,5,2.3,5.5V16c3,0.1,5.4,2.6,5.4,5.7
		c0,3-2.4,5.5-5.4,5.7L2.3,37.8z M70,25.6h0.3c0.9,0,1.7-0.8,1.7-1.7V12.9c0-1.7-1.4-3.1-3.1-3.1h-5.5V5.5c0-1.7-1.4-3.1-3.1-3.1
		H3.1C1.4,2.4,0,3.7,0,5.5v11.1c0,0.9,0.8,1.7,1.7,1.7H2c1.9,0,3.4,1.5,3.4,3.4C5.4,23.5,3.9,25,2,25H1.7C0.8,25,0,25.8,0,26.7v11.1
		c0,1.7,1.4,3.1,3.1,3.1h5.5v4.3c0,1.7,1.4,3.1,3.1,3.1h17.6v5c0,0.6,0.5,1.1,1.1,1.1h2.2c0.4,1.5,1,2.9,1.8,4.3l-1.5,1.5
		c-0.4,0.4-0.4,1.2,0,1.6l4.3,4.3c0.2,0.2,0.5,0.3,0.8,0.3s0.6-0.1,0.8-0.3l1.5-1.5c1.3,0.8,2.8,1.4,4.3,1.8v2.2
		c0,0.6,0.5,1.1,1.1,1.1h6.1c0.6,0,1.1-0.5,1.1-1.1v-2.2c1.5-0.4,2.9-1,4.3-1.8l1.5,1.5c0.4,0.4,1.2,0.4,1.6,0l4.3-4.3
		c0.2-0.2,0.3-0.5,0.3-0.8c0-0.3-0.1-0.6-0.3-0.8l-1.5-1.5c0.8-1.3,1.4-2.8,1.8-4.3h2.2c0.6,0,1.1-0.5,1.1-1.1v-5h0.7
		c1.7,0,3.1-1.4,3.1-3.1V34.1c0-0.9-0.8-1.7-1.7-1.7H70c-1.9,0-3.4-1.5-3.4-3.4C66.6,27.2,68.1,25.6,70,25.6L70,25.6z"/>
</g>
</svg>
