<?xml version="1.0" encoding="utf-8"?>
<!-- Generator: Adobe Illustrator 24.3.0, SVG Export Plug-In . SVG Version: 6.00 Build 0)  -->
<svg version="1.1" id="Layer_1" xmlns="http://www.w3.org/2000/svg" xmlns:xlink="http://www.w3.org/1999/xlink" x="0px" y="0px"
	 viewBox="0 0 72 72" style="enable-background:new 0 0 72 72;" xml:space="preserve">
<style type="text/css">
	.st0{fill:#64B5F6;}
	.st1{fill:#42A5F5;}
	.st2{fill:#6BC17F;}
	.st3{fill:#7FD196;}
	.st4{fill:#FFFFFF;}
	.st5{fill:none;}
</style>
<g>
	<path class="st0" d="M44.5,39.8c0,5.3-2.6,10.2-6.7,13.8c-3.9,3.3-9.2,5.4-15.1,5.4c-3.7,0-7.3-0.8-10.6-2.4L1.1,63.4l4.4-11.9
		C2.7,48.3,1.1,44.3,1.1,40c0-9.7,8.2-17.6,18.6-18.9c1.1-0.1,2.1-0.2,3.2-0.2C34.8,20.9,44.5,29.4,44.5,39.8z"/>
	<path class="st1" d="M44.5,39.8c0,5.3-2.6,10.2-6.7,13.8c-0.4,0-0.6-0.1-0.6-0.1c-1.2-0.1-2.5-0.3-3.7-0.6
		c-9.6-2.3-17.8-9.9-17.8-20.3c0-3.2,0.8-6.4,2.4-9.3c0.4-0.8,1-1.6,1.5-2.3c1.1-0.1,2.1-0.2,3.2-0.2C34.8,20.9,44.5,29.4,44.5,39.8
		L44.5,39.8z"/>
	<path class="st2" d="M63.7,41.5l7.2,12.8l-13.8-7.2c-4,2.3-8.5,3.4-13.1,3.4c-1.4,0-2.4-0.1-2.4-0.1c-11-1-21.4-9.2-21.4-20.9
		c0-3.2,0.8-6.4,2.4-9.3c0,0,5.9-11.7,21.5-11.7c13.2,0,23.9,9.4,23.9,21C67.9,34,66.4,38.1,63.7,41.5L63.7,41.5z"/>
	<path class="st3" d="M54.8,47.4l0.4,0.8c-1.6,0.8-3.3,1.3-5.1,1.7c-2,0.5-4,0.7-6.1,0.7c-1.4,0-2.4-0.1-2.4-0.1
		c-1.2-0.1-2.5-0.3-3.7-0.6c-9.6-2.3-17.8-9.9-17.8-20.3c0-3.2,0.8-6.4,2.4-9.3c0,0,4.3-8.6,15.3-11.1c10.3,2.4,17.8,10.6,17.8,20.3
		c0,2.5-0.5,5-1.5,7.3C52.8,40.3,53,44.2,54.8,47.4L54.8,47.4z"/>
	<path d="M71.9,53.8L65,41.6c2.6-3.6,4-7.7,4-12C69,17.4,57.8,7.5,44,7.5c-12,0-19.6,7.1-22.4,12.4c-3.9,0.2-7.8,1.2-11.2,3.2
		c-0.5,0.3-0.7,1-0.4,1.5c0,0.1,0.1,0.1,0.1,0.2c0.3,0.4,0.9,0.5,1.4,0.2c2.8-1.6,5.8-2.5,9-2.8c-2.7,6.7-1.5,14.2,2.9,19.9
		c1.2,1.5,5.9,7.4,15.4,9.2v0c-3.9,4.2-9.7,6.7-16,6.7c-3.5,0-7-0.8-10.1-2.3c-0.3-0.2-0.7-0.1-1,0l-8.4,5.2l3.3-9
		c0.1-0.4,0.1-0.8-0.2-1.1C3.6,47.6,2.2,43.9,2.2,40c0-3.5,1.2-6.8,3.2-9.6c0.3-0.4,0.3-1-0.1-1.4l0,0c-0.4-0.5-1.1-0.5-1.5-0.1
		C3.7,29,3.6,29,3.6,29.1C1.3,32.2,0,36,0,40c0,4.3,1.5,8.3,4.2,11.7L0.1,63c-0.4,1.1,0.8,1.8,1.6,1.3l10.6-6.5
		c3.3,1.5,6.9,2.3,10.5,2.3c7.4,0,14.3-3.2,18.6-8.5c0.1,0,1.9,0.1,2.7,0.1c4.6,0,9.1-1.1,13.1-3.3l13.3,6.9
		C71.6,55.7,72.3,54.7,71.9,53.8L71.9,53.8z M57.6,46.2c-0.3-0.2-0.7-0.2-1,0c-7.3,4.2-16.7,4.4-24.2,0.5
		c-10.7-5.6-13.7-17.5-9.2-25.3c4.1-7.1,12-11.8,20.8-11.8c12.6,0,22.8,8.9,22.8,19.9c0,4-1.4,7.9-4,11.3c-0.3,0.3-0.3,0.8-0.1,1.2
		l5.4,9.7L57.6,46.2z"/>
	<circle cx="7.4" cy="26.6" r="1.1"/>
	<g>
		<path class="st4" d="M55.6,28.9L55.6,28.9c0,6.1-5,11.1-11.1,11.1h0c-1.9,0-3.7-0.5-5.3-1.3l-5.9,1.5l1.6-5.7
			c-1-1.7-1.5-3.6-1.5-5.5c0-6.1,5-11.1,11.1-11.1c3,0,5.7,1.2,7.8,3.2C54.5,23.2,55.6,25.9,55.6,28.9z"/>
		<path class="st5" d="M57,28.9L57,28.9c0,6.9-5.6,12.4-12.4,12.4h0c-2.1,0-4.1-0.5-5.9-1.5L32,41.5l1.8-6.4c-1.1-1.9-1.7-4-1.7-6.2
			c0-6.9,5.6-12.4,12.4-12.4c3.3,0,6.4,1.3,8.8,3.6C55.7,22.4,57,25.6,57,28.9z"/>
		<g>
			<path d="M53.4,20.1c-2.3-2.3-5.5-3.6-8.8-3.6c-6.9,0-12.4,5.6-12.4,12.4c0,2.2,0.6,4.3,1.7,6.2L32,41.5l6.6-1.7
				c1.8,1,3.9,1.5,5.9,1.5h0c6.9,0,12.4-5.6,12.4-12.4v0C57,25.6,55.7,22.4,53.4,20.1z M44.6,39.2L44.6,39.2c-1.9,0-3.7-0.5-5.3-1.4
				l-0.4-0.2l-3.9,1l1-3.8l-0.2-0.4c-1-1.6-1.6-3.5-1.6-5.5c0-5.7,4.6-10.3,10.3-10.3c2.8,0,5.4,1.1,7.3,3c2,2,3,4.6,3,7.3
				C54.9,34.6,50.3,39.2,44.6,39.2z"/>
			<path d="M41.5,23.7c-0.2-0.5-0.5-0.5-0.7-0.5c-0.2,0-0.4,0-0.6,0c-0.2,0-0.5,0.1-0.8,0.4c-0.3,0.3-1.1,1.1-1.1,2.6s1.1,3,1.3,3.2
				c0.2,0.2,2.1,3.4,5.3,4.7c2.6,1,3.2,0.8,3.7,0.8c0.6-0.1,1.8-0.8,2.1-1.5c0.3-0.7,0.3-1.3,0.2-1.5c-0.1-0.1-0.3-0.2-0.6-0.4
				c-0.3-0.2-1.8-0.9-2.1-1c-0.3-0.1-0.5-0.2-0.7,0.2c-0.2,0.3-0.8,1-1,1.2c-0.2,0.2-0.4,0.2-0.7,0.1c-0.3-0.2-1.3-0.5-2.5-1.5
				c-0.9-0.8-1.5-1.8-1.7-2.2c-0.2-0.3,0-0.5,0.1-0.6c0.1-0.1,0.3-0.4,0.5-0.5c0.2-0.2,0.2-0.3,0.3-0.5c0.1-0.2,0.1-0.4,0-0.5
				C42.4,25.8,41.8,24.3,41.5,23.7z"/>
		</g>
	</g>
</g>
</svg>
