<?xml version="1.0" encoding="utf-8"?>
<!-- Generator: Adobe Illustrator 24.3.0, SVG Export Plug-In . SVG Version: 6.00 Build 0)  -->
<svg version="1.1" id="Layer_1" xmlns="http://www.w3.org/2000/svg" xmlns:xlink="http://www.w3.org/1999/xlink" x="0px" y="0px"
	 viewBox="0 0 24 24" style="enable-background:new 0 0 24 24;" xml:space="preserve">
<path d="M5,0h6c2.8,0,5,2.2,5,5v6c0,2.8-2.2,5-5,5H5c-2.8,0-5-2.2-5-5V5C0,2.2,2.2,0,5,0z M18,6v9c0,1.7-1.3,3-3,3H6
	c-0.6,0-1,0.4-1,1s0.4,1,1,1h9c2.8,0,5-2.2,5-5V6c0-0.6-0.4-1-1-1S18,5.4,18,6z M22,10v9c0,1.7-1.3,3-3,3h-9c-0.6,0-1,0.4-1,1
	s0.4,1,1,1h9c2.8,0,5-2.2,5-5v-9c0-0.6-0.4-1-1-1S22,9.4,22,10z"/>
</svg>
