<?xml version="1.0" encoding="utf-8"?>
<!-- Generator: Adobe Illustrator 24.3.0, SVG Export Plug-In . SVG Version: 6.00 Build 0)  -->
<svg version="1.1" id="Filled" xmlns="http://www.w3.org/2000/svg" xmlns:xlink="http://www.w3.org/1999/xlink" x="0px" y="0px"
	 viewBox="0 0 512 512" style="enable-background:new 0 0 512 512;" xml:space="preserve">
<path d="M0,128v45.4c0.2,19.6,13.6,36.7,32.7,41.4c22.7,6.2,36.1,29.7,29.9,52.4c-4,14.5-15.3,25.9-29.9,29.9
	C13.6,301.9,0.2,318.9,0,338.6V384c0,35.3,28.7,64,64,64h85.3v-85.3c0-11.8,9.6-21.3,21.3-21.3c11.8,0,21.3,9.6,21.3,21.3V448h213.3
	c58.9-0.1,106.6-47.8,106.7-106.7v-2.8c-0.2-19.6-13.6-36.7-32.7-41.4c-22.7-6.2-36.1-29.7-29.9-52.4c4-14.5,15.3-25.9,29.9-29.9
	c19.1-4.7,32.5-21.8,32.7-41.4v-2.8C511.9,111.8,464.2,64.1,405.3,64H192v85.3c0,11.8-9.6,21.3-21.3,21.3
	c-11.8,0-21.3-9.6-21.3-21.3V64H64C28.7,64,0,92.7,0,128z M192,234.7v42.7c0,11.8-9.6,21.3-21.3,21.3c-11.8,0-21.3-9.6-21.3-21.3
	v-42.7c0-11.8,9.6-21.3,21.3-21.3C182.4,213.3,192,222.9,192,234.7z"/>
</svg>
