<svg width="10" height="20" viewBox="0 0 10 20" fill="none" xmlns="http://www.w3.org/2000/svg">
<path d="M5.73349 16.3459C6.42449 16.1049 7.11549 15.8459 7.82449 15.6319C8.14711 15.5201 8.48514 15.459 8.82649 15.4509C9.28449 15.4509 9.69949 15.8729 9.76049 16.3199C9.80349 16.6379 9.55249 17.1369 9.26749 17.1199C8.14449 17.0599 7.33149 17.7739 6.40749 18.1869C5.62049 18.5399 4.89449 19.0209 4.10749 19.3739C3.53849 19.6319 2.93449 19.8729 2.31949 19.9679C0.859489 20.1909 -0.220511 19.1499 0.0384894 17.7309C0.401489 15.7609 0.858489 13.8079 1.63649 11.9409C1.79249 11.5799 1.99149 11.2179 2.25049 10.9259C2.64749 10.4779 3.52049 10.7279 3.60749 11.3219C3.67649 11.8199 3.62449 12.3449 3.58949 12.8619C3.53849 13.6529 3.44249 14.4439 3.36549 15.3049C3.63349 15.2959 3.83149 15.3479 3.92649 15.2699C5.50949 13.9019 6.83949 12.3279 7.72049 10.4279C8.46349 8.8359 8.78349 7.1759 8.30049 5.4209C7.61749 2.9509 5.66349 1.3169 3.08849 1.1449C2.80349 1.1279 2.52649 1.1449 2.31949 1.1449C1.97349 0.765902 2.12049 0.499903 2.37149 0.353903C2.93349 0.0269032 3.54649 -0.0590973 4.20349 0.0349026C7.26349 0.507902 9.60449 2.9769 9.94149 6.0749C10.1315 7.8809 9.85549 9.6099 9.06849 11.2619C8.42049 12.6219 7.56549 13.8349 6.59749 14.9789C6.26849 15.3749 5.92349 15.7529 5.58649 16.1399C5.62949 16.1999 5.68149 16.2689 5.73349 16.3459Z" fill="#6A7282"/>
</svg>
